<svg width="35" height="35" viewBox="0 0 35 35" fill="none" xmlns="http://www.w3.org/2000/svg">
<g clip-path="url(#clip0)">
<path d="M35 17.5C35 25.0962 30.162 31.5903 23.3332 34.004C22.6224 34.2553 21.8406 33.8833 21.5885 33.1706C21.3369 32.4587 21.7102 31.6774 22.4221 31.4258C28.3099 29.3449 32.2656 23.7485 32.2656 17.5C32.2656 10.5479 27.5024 4.85966 21.2883 3.22224L23.8443 5.77824C24.3781 6.31203 24.3781 7.17773 23.8443 7.71152C23.3103 8.24532 22.4448 8.24558 21.9108 7.71152L16.5331 2.33383C15.6733 1.474 16.2856 0 17.5 0C27.1731 0 35 7.82822 35 17.5ZM13.0892 27.2885C12.5552 26.7544 11.6897 26.7544 11.1557 27.2885C10.6219 27.8223 10.6219 28.688 11.1557 29.2218L13.7117 31.7778C7.49763 30.1403 2.73438 24.4521 2.73438 17.5C2.73438 11.2515 6.69014 5.65514 12.5781 3.57418C13.29 3.32264 13.6631 2.54158 13.4115 1.82968C13.16 1.11778 12.3789 0.744476 11.6668 0.996284C4.83803 3.40969 0 9.90383 0 17.5C0 27.1718 7.82688 35 17.5 35C18.7144 35 19.3267 33.526 18.4666 32.6662L13.0892 27.2885Z" fill="#414141"/>
<path d="M17.5 21.5105C15.2887 21.5105 13.4895 19.7113 13.4895 17.5C13.4895 15.2887 15.2887 13.4895 17.5 13.4895C19.7113 13.4895 21.5105 15.2887 21.5105 17.5C21.5105 19.7113 19.7113 21.5105 17.5 21.5105Z" fill="#ED1C24"/>
</g>
<defs>
<clipPath id="clip0">
<rect width="35" height="35" fill="white"/>
</clipPath>
</defs>
</svg>
