<svg width="90" height="94" viewBox="0 0 90 94" fill="none" xmlns="http://www.w3.org/2000/svg">
<circle cx="45" cy="48.8287" r="44.5" stroke="#414141"/>
<path d="M78 48.3287C78 66.8303 63.0015 81.8287 44.5 81.8287C25.9985 81.8287 11 66.8303 11 48.3287C11 29.8272 25.9985 14.8287 44.5 14.8287C63.0015 14.8287 78 29.8272 78 48.3287Z" stroke="#5F6B7A" stroke-linecap="round" stroke-linejoin="round" stroke-dasharray="1 4"/>
<path d="M1.67617 45.2472C3.55148 21.3624 24.4341 3.52024 48.3189 5.39555" stroke="#ED1C24" stroke-width="2" stroke-linecap="round" stroke-linejoin="bevel"/>
<path d="M69.2344 61.5391V35.5078C69.2344 35.0852 68.8921 34.7422 68.4688 34.7422H62.3438V33.9766H63.875C64.2984 33.9766 64.6406 33.6336 64.6406 33.2109C64.6406 32.7883 64.2984 32.4453 63.875 32.4453H59.2812C58.8579 32.4453 58.5156 32.7883 58.5156 33.2109C58.5156 33.6336 58.8579 33.9766 59.2812 33.9766H60.8125V34.7422H51.625V33.9766H53.1562C53.5796 33.9766 53.9219 33.6336 53.9219 33.2109C53.9219 32.7883 53.5796 32.4453 53.1562 32.4453H48.5625C48.1391 32.4453 47.7969 32.7883 47.7969 33.2109C47.7969 33.6336 48.1391 33.9766 48.5625 33.9766H50.0938V34.7422H40.9062V33.9766H42.4375C42.8609 33.9766 43.2031 33.6336 43.2031 33.2109C43.2031 32.7883 42.8609 32.4453 42.4375 32.4453H37.8438C37.4204 32.4453 37.0781 32.7883 37.0781 33.2109C37.0781 33.6336 37.4204 33.9766 37.8438 33.9766H39.375V34.7422H30.1875V33.9766H31.7188C32.1421 33.9766 32.4844 33.6336 32.4844 33.2109C32.4844 32.7883 32.1421 32.4453 31.7188 32.4453H27.125C26.7016 32.4453 26.3594 32.7883 26.3594 33.2109C26.3594 33.6336 26.7016 33.9766 27.125 33.9766H28.6562V34.7422H22.5312C22.1079 34.7422 21.7656 35.0852 21.7656 35.5078V61.5391C21.3422 61.5391 21 61.8813 21 62.3047C21 62.7281 21.3422 63.0703 21.7656 63.0703H42.4375V72.7891C42.4375 73.2124 42.7797 73.5547 43.2031 73.5547C43.6265 73.5547 43.9688 73.2124 43.9688 72.7891V63.0703H47.0312V72.7891C47.0312 73.2124 47.3735 73.5547 47.7969 73.5547C48.2203 73.5547 48.5625 73.2124 48.5625 72.7891V72.2578C48.9859 72.2578 49.3281 71.9156 49.3281 71.4922C49.3281 71.0688 48.9859 70.7266 48.5625 70.7266V69.1953C48.9859 69.1953 49.3281 68.8531 49.3281 68.4297C49.3281 68.0063 48.9859 67.6641 48.5625 67.6641V66.1328C48.9859 66.1328 49.3281 65.7906 49.3281 65.3672C49.3281 64.9438 48.9859 64.6016 48.5625 64.6016V63.0703H69.2344C69.6578 63.0703 70 62.7281 70 62.3047C70 61.8813 69.6578 61.5391 69.2344 61.5391ZM23.2969 36.2734H45.5H67.7031V61.5391H23.2969V36.2734Z" fill="white"/>
<path d="M50.0945 45.4609H63.8758C64.2992 45.4609 64.6414 45.1179 64.6414 44.6953C64.6414 44.2727 64.2992 43.9297 63.8758 43.9297H50.0945C49.6711 43.9297 49.3289 44.2727 49.3289 44.6953C49.3289 45.1179 49.6711 45.4609 50.0945 45.4609Z" fill="#2D9CDB"/>
<path d="M50.0945 48.5234H63.8758C64.2992 48.5234 64.6414 48.1804 64.6414 47.7578C64.6414 47.3352 64.2992 46.9922 63.8758 46.9922H50.0945C49.6711 46.9922 49.3289 47.3352 49.3289 47.7578C49.3289 48.1804 49.6711 48.5234 50.0945 48.5234Z" fill="#2D9CDB"/>
<path d="M50.0945 51.5859H63.8758C64.2992 51.5859 64.6414 51.2429 64.6414 50.8203C64.6414 50.3977 64.2992 50.0547 63.8758 50.0547H50.0945C49.6711 50.0547 49.3289 50.3977 49.3289 50.8203C49.3289 51.2429 49.6711 51.5859 50.0945 51.5859Z" fill="#2D9CDB"/>
<path d="M50.0945 54.647H56.9851C57.4085 54.647 57.7508 54.3047 57.7508 53.8814C57.7508 53.4587 57.4085 53.1157 56.9851 53.1157H50.0945C49.6711 53.1157 49.3289 53.4587 49.3289 53.8814C49.3289 54.3047 49.6711 54.647 50.0945 54.647Z" fill="#2D9CDB"/>
<path d="M28.6624 45.4595C29.9287 45.4595 30.9592 44.4289 30.9592 43.1626C30.9592 41.8963 29.9287 40.8657 28.6624 40.8657C27.396 40.8657 26.3655 41.8963 26.3655 43.1626C26.3655 44.4289 27.396 45.4595 28.6624 45.4595ZM28.6624 42.397C29.085 42.397 29.428 42.7407 29.428 43.1626C29.428 43.5845 29.085 43.9282 28.6624 43.9282C28.2397 43.9282 27.8967 43.5845 27.8967 43.1626C27.8967 42.7407 28.2397 42.397 28.6624 42.397Z" fill="#ED1C24"/>
<path d="M45.5046 56.1904C45.5352 56.1904 45.5605 56.1766 45.5903 56.1736C45.6432 56.1674 45.696 56.159 45.7473 56.1414C45.7902 56.1269 45.8277 56.1085 45.8667 56.087C45.8836 56.0779 45.902 56.074 45.918 56.0641C45.9341 56.0541 45.941 56.038 45.9563 56.0273C46.0091 55.9867 46.0558 55.9431 46.098 55.8895C46.1209 55.8596 46.1416 55.8298 46.1607 55.7969C46.1875 55.7486 46.209 55.6989 46.2258 55.6453C46.2404 55.5978 46.2488 55.5526 46.2541 55.5029C46.2572 55.4761 46.2702 55.4531 46.2702 55.4248C46.2702 55.4026 46.2595 55.3834 46.2572 55.362C46.2534 55.3076 46.2411 55.2556 46.225 55.202C46.2113 55.1576 46.1967 55.117 46.176 55.0756C46.1638 55.0534 46.1623 55.0274 46.1485 55.0052L39.2579 44.2995C39.2563 44.2964 39.2525 44.2956 39.251 44.2926C39.2226 44.2489 39.179 44.2168 39.1415 44.18C39.1055 44.1456 39.0756 44.1035 39.0351 44.0774C39.032 44.0751 39.0305 44.0721 39.0274 44.0698C38.993 44.0476 38.9539 44.043 38.9172 44.0269C38.8659 44.0039 38.8161 43.9764 38.761 43.9657C38.7081 43.9549 38.6553 43.9611 38.6017 43.9626C38.5565 43.9626 38.5129 43.9565 38.4677 43.9649C38.4073 43.9771 38.3529 44.0055 38.2962 44.0315C38.2641 44.0468 38.2289 44.0499 38.1982 44.0698C38.1952 44.0713 38.1936 44.0751 38.1906 44.0767C38.15 44.1035 38.1209 44.1441 38.0857 44.1785C38.0474 44.216 38.0038 44.2482 37.9747 44.2918C37.9731 44.2941 37.9693 44.2956 37.9678 44.2987L34.3816 49.8694L32.7455 47.352C32.7439 47.3497 32.7416 47.349 32.7401 47.3467C32.7141 47.3069 32.6727 47.2778 32.6383 47.2433C32.6007 47.205 32.5686 47.1606 32.525 47.1315C32.5234 47.1308 32.5227 47.1285 32.5204 47.1269C32.4905 47.1078 32.4568 47.104 32.4254 47.0894C32.368 47.0626 32.3129 47.032 32.2501 47.0197C32.2011 47.0098 32.1521 47.0174 32.1031 47.0174C32.0541 47.0174 32.0051 47.0106 31.9569 47.0197C31.8964 47.032 31.8428 47.0611 31.7861 47.0871C31.7532 47.1024 31.7172 47.1063 31.6858 47.1269C31.6835 47.1277 31.6828 47.13 31.6805 47.1315C31.6391 47.1591 31.6093 47.2012 31.5733 47.2372C31.5365 47.2732 31.4937 47.3046 31.4653 47.3467C31.4638 47.349 31.4615 47.3497 31.46 47.352L26.4834 55.0067C26.4704 55.0259 26.4696 55.0481 26.4597 55.068C26.4352 55.1132 26.4183 55.1591 26.4038 55.2089C26.3885 55.2594 26.3777 55.3092 26.3732 55.3605C26.3716 55.3827 26.3601 55.4018 26.3601 55.424C26.3601 55.4508 26.3732 55.473 26.3755 55.4998C26.3816 55.5519 26.3908 55.6016 26.4068 55.6522C26.4222 55.6996 26.4398 55.7417 26.4627 55.7854C26.4849 55.8275 26.511 55.865 26.5424 55.9025C26.576 55.9439 26.6128 55.9791 26.6541 56.0128C26.6748 56.0289 26.6871 56.0518 26.7093 56.0664C26.7345 56.0824 26.7621 56.0893 26.7889 56.1031C26.8126 56.1154 26.8364 56.1269 26.8624 56.1368C26.9489 56.1682 27.0377 56.1896 27.1265 56.1896H27.1273H45.5046V56.1904ZM35.0102 51.7276C35.0194 51.7146 35.0262 51.7015 35.0347 51.6885L38.614 46.1278L44.105 54.6592H33.1229L35.0102 51.7276ZM31.3022 54.6592H28.5414L32.1062 49.175L33.4759 51.282L31.3022 54.6592Z" fill="#ED1C24"/>
</svg>
