<svg width="35" height="35" viewBox="0 0 35 35" fill="none" xmlns="http://www.w3.org/2000/svg">
<g clip-path="url(#clip0)">
<path d="M10.1401 24.8601C10.7614 25.4813 10.7614 26.4886 10.1401 27.1099C9.51887 27.7312 8.51154 27.7312 7.89018 27.1099C7.26893 26.4887 7.26893 25.4814 7.89018 24.8601C8.51154 24.2387 9.51887 24.2387 10.1401 24.8601Z" fill="#ED1C24"/>
<path d="M15.4432 24.8601C16.0644 25.4813 16.0644 26.4886 15.4432 27.1099C14.8219 27.7312 13.8146 27.7312 13.1932 27.1099C12.572 26.4887 12.572 25.4814 13.1932 24.8601C13.8145 24.2387 14.8218 24.2387 15.4432 24.8601Z" fill="#ED1C24"/>
<path d="M20.7462 24.8601C21.3674 25.4813 21.3674 26.4886 20.7462 27.1099C20.1249 27.7312 19.1176 27.7312 18.4962 27.1099C17.875 26.4887 17.875 25.4814 18.4962 24.8601C19.1176 24.2387 20.1248 24.2387 20.7462 24.8601Z" fill="#ED1C24"/>
<path d="M32.6617 20.1785C32.2675 19.7844 32.2526 19.152 32.6286 18.6746C34.1795 16.7018 34.9998 14.4054 34.9998 12.0321C34.9998 5.39807 28.6211 0.000976562 20.7812 0.000976562C12.9414 0.000976562 6.5626 5.39815 6.5626 12.0321C6.5626 12.2978 6.606 12.5532 6.62923 12.8134C2.6527 14.9488 0.000140175 18.6978 0.000140175 22.9694C0.000140175 25.3428 0.820448 27.6392 2.37135 29.612C2.74731 30.0894 2.73233 30.7218 2.33825 31.1159L0.320577 33.1335C0.0075922 33.4465 -0.0863618 33.9164 0.0834276 34.3255C0.252194 34.7346 0.651681 35.0006 1.09384 35.0006H14.2187C21.6222 35.0006 27.7156 30.1859 28.3717 24.0632H33.9059C34.3482 24.0632 34.7476 23.7973 34.9163 23.3882C35.0862 22.9791 34.9922 22.5091 34.6792 22.1961L32.6617 20.1785ZM14.2188 32.8131H3.73427L3.88484 32.6625C5.05656 31.4919 5.14416 29.5981 4.09101 28.2598C2.84557 26.6769 2.18768 24.8472 2.18768 22.9695C2.18768 17.5414 7.58477 13.1259 14.2188 13.1259C20.8527 13.1259 26.2498 17.5414 26.2498 22.9695C26.2498 28.3976 20.8527 32.8131 14.2188 32.8131ZM28.3718 21.8757C27.7157 15.753 21.6223 10.9383 14.2188 10.9383C12.2854 10.9383 10.4425 11.2691 8.76051 11.8633C8.87215 6.51369 14.2168 2.18844 20.7812 2.18844C27.4152 2.18844 32.8123 6.60399 32.8123 12.0321C32.8123 13.9098 32.1543 15.7394 30.909 17.3223C29.8558 18.6606 29.9434 20.5544 31.1151 21.725L31.2657 21.8756C31.2656 21.8758 28.3718 21.8758 28.3718 21.8757V21.8757Z" fill="#414141"/>
</g>
<defs>
<clipPath id="clip0">
</clipPath>
</defs>
</svg>
