<svg width="185" height="42" viewBox="0 0 185 42" fill="none" xmlns="http://www.w3.org/2000/svg">
<path d="M163.486 0L142.477 21.0196L163.368 41.9607L184.377 20.9215L163.486 0.0196262" fill="#808091"/>
<path d="M179.315 15.8579L172.979 22.1972L163.387 41.9411L184.376 20.9215L179.315 15.8579Z" fill="#53535E"/>
<path d="M80.6481 19.3121C79.4907 15.2691 73.5078 15.0924 71.2127 18.2326C69.0745 15.2887 64.347 15.4457 62.1304 18.1934C59.953 15.328 55.3432 15.4457 52.9892 18.0364C50.7726 15.4457 46.3393 15.3083 44.0443 17.899C43.9854 17.6242 43.8873 17.0747 43.8285 16.7999C42.0042 16.7018 40.1602 16.7999 38.3359 16.7607C38.3359 21.4513 38.3359 26.142 38.3359 30.8326C40.3564 30.8326 42.3965 30.8326 44.417 30.8326C44.4366 28.1438 44.3581 25.4747 44.4366 22.7859C44.4366 21.8242 45.3193 20.9214 46.3197 21.1373C47.124 21.1569 47.4967 22.0205 47.4575 22.727C47.5163 25.4354 47.4575 28.1242 47.4575 30.8326C49.4779 30.8326 51.4984 30.8326 53.5189 30.8326C53.5189 28.4186 53.4993 26.0046 53.5189 23.5906C53.5385 22.9037 53.5189 22.1382 54.0485 21.6279C54.7547 20.7448 56.5202 21.0588 56.5398 22.3149C56.6771 25.141 56.5594 28.0065 56.579 30.8326C58.5995 30.8326 60.6396 30.8326 62.66 30.8326C62.6993 28.0457 62.5423 25.2392 62.7385 22.4522C62.8758 20.9214 65.4651 20.5485 65.6613 22.2364C65.8182 25.1018 65.7005 27.9672 65.7005 30.8326C67.7602 30.8522 69.8199 30.8326 71.8993 30.8326C71.9385 28.0457 71.7816 25.2588 71.9581 22.4719C72.0366 21.0588 74.3121 20.47 74.8025 21.9223C75.0575 24.8859 74.8613 27.8691 74.9005 30.8326C76.9406 30.8326 78.9807 30.8326 81.0012 30.8326C80.805 27.0055 81.3739 23.0999 80.6481 19.3121Z" fill="#808091"/>
<path d="M25.6444 16.5448C19.838 18.4681 19.4261 27.7317 24.7421 30.4597C28.5869 32.4223 34.2756 31.7158 36.551 27.7121C37.983 25.0625 37.8457 21.5298 36.0802 19.0373C33.7459 15.8971 29.1557 15.2494 25.6444 16.5448ZM30.7643 26.3971C30.4504 27.3392 29.2342 27.8298 28.4103 27.2018C27.4099 26.3382 27.3903 24.8663 27.3707 23.6494C27.4295 22.4719 27.508 20.9607 28.6849 20.3326C29.5284 19.9597 30.5092 20.4896 30.7839 21.3336C31.3331 22.9625 31.3331 24.7878 30.7643 26.3971Z" fill="#808091"/>
<path d="M11.0299 15.9168C12.4619 15.956 13.1485 17.3298 13.6977 18.4485C15.934 18.4682 18.1702 18.4485 20.4065 18.4485C20.1711 15.8579 18.8764 13.3261 16.6009 11.9915C13.3839 10.127 9.2056 9.95041 5.83162 11.5009C2.45763 13.1102 0.574474 16.8196 0.515625 20.47V21.4513C0.59409 23.9831 1.39835 26.5738 3.18343 28.399C6.12586 31.5588 11.1084 32.2261 15.0512 30.7738C18.2094 29.6158 20.1514 26.3971 20.3868 23.1196C18.2094 23.0999 16.0517 23.1196 13.8743 23.1196C13.3446 24.2186 12.7561 25.5532 11.4419 25.8869C10.1472 26.2794 8.8329 25.4354 8.26403 24.2971C7.42053 22.6485 7.47938 20.6859 7.79324 18.9196C8.08748 17.3691 9.30368 15.7205 11.0299 15.9168Z" fill="#808091"/>
<path d="M124.118 25.9458C123.804 26.9467 123.471 28.0065 122.647 28.7327C120.784 30.4991 117.351 29.8906 116.154 27.6336C114.879 25.2589 114.879 22.1383 116.311 19.8224C117.625 17.6635 120.901 17.1925 122.804 18.8215C123.471 19.4103 123.667 20.3131 124.001 21.0981C124.413 21.0981 125.236 21.0981 125.668 21.0785C125.374 20.0383 125.119 18.9196 124.334 18.1346C121.764 15.2495 116.448 15.9364 114.644 19.3514C113.172 22.2757 113.231 26.0047 114.997 28.7916C116.9 31.6963 121.607 32.1869 124.001 29.6355C125.001 28.6542 125.452 27.2804 125.786 25.9654C125.236 25.9654 124.668 25.9458 124.118 25.9458Z" fill="#808091"/>
<path d="M112.053 24.2775C112.034 22.1579 111.739 19.8812 110.268 18.2523C107.953 15.485 102.971 15.8775 101.166 19.0177C99.4007 22.0794 99.3222 26.2794 101.421 29.2037C103.167 31.5392 106.718 31.9121 109.189 30.5579C110.719 29.6747 111.504 27.9672 112.014 26.3579C111.445 26.3382 110.876 26.3382 110.327 26.3186C109.856 28.8308 107.11 30.4597 104.697 29.5962C102.441 28.9093 101.578 26.4364 101.421 24.3167C104.932 24.2382 108.503 24.3167 112.053 24.2775ZM104.069 18.3896C105.796 17.3691 108.208 17.9775 109.327 19.6261C110.033 20.5485 110.15 21.7457 110.405 22.8644C107.404 22.884 104.422 22.9037 101.421 22.8644C101.794 21.1373 102.422 19.2532 104.069 18.3896Z" fill="#808091"/>
<path d="M96.6738 21.8046C93.8686 19.8616 90.1808 20.1364 87.2188 18.527C85.3552 17.3495 85.6691 14.3074 87.4541 13.1691C89.6512 11.7364 92.829 11.913 94.8298 13.6009C95.8106 14.3663 96.0657 15.6027 96.3599 16.741C96.7915 16.741 97.635 16.7214 98.0665 16.7214C97.8311 15.0336 97.2819 13.228 95.8499 12.1485C93.1428 10.1859 89.0627 10.0289 86.2968 11.9915C83.8644 13.6401 83.3544 17.7027 85.7475 19.6065C88.5723 21.7261 92.4367 21.3139 95.4379 23.0803C97.3996 24.199 97.223 27.3392 95.4576 28.5756C93.1036 30.3027 89.6119 30.1457 87.2188 28.5756C85.8652 27.7317 85.4533 26.0831 85.3552 24.5915C84.7667 24.5915 84.1979 24.6111 83.6094 24.6308C83.7271 25.8868 83.8644 27.1822 84.5902 28.2616C85.9045 30.4009 88.5134 31.3233 90.9262 31.4018C93.3194 31.5392 96.0264 30.9308 97.478 28.8504C99.1062 26.7896 98.8904 23.3747 96.6738 21.8046Z" fill="#808091"/>
</svg>
