<svg width="152" height="58" viewBox="0 0 152 58" fill="none" xmlns="http://www.w3.org/2000/svg">
<g opacity="0.5">
<path opacity="0.5" d="M44.7132 17.5916C44.6334 17.3498 44.3994 17.1854 44.1348 17.1852H38.4538C38.1892 17.1854 37.9553 17.3498 37.8755 17.5916L30.7197 39.3358C30.6613 39.5126 30.6944 39.7054 30.8086 39.8549C30.9228 40.0045 31.1046 40.093 31.298 40.0932H35.2017C35.4694 40.0915 35.7044 39.9219 35.78 39.6757L40.7073 23.6839C40.7913 23.4461 41.0237 23.2858 41.2856 23.2849C41.5498 23.2866 41.7805 23.4564 41.8505 23.7005L44.1368 31.2743H41.0678C40.7979 31.2771 40.5623 31.4502 40.4895 31.6992L39.6027 34.7029C39.5517 34.8772 39.5883 35.0643 39.7016 35.2091C39.815 35.3539 39.9922 35.4399 40.181 35.4418H45.411L46.7932 39.6905C46.8723 39.933 47.1064 40.0982 47.3715 40.0988H51.2771C51.4705 40.0986 51.6523 40.0101 51.7665 39.8605C51.8808 39.7109 51.9138 39.5181 51.8554 39.3414L44.7132 17.5916Z" fill="#000223"/>
<path opacity="0.5" d="M61.7098 36.3394C61.684 36.1742 61.5868 36.0272 61.4421 35.9345C61.2974 35.8418 61.1186 35.812 60.9498 35.8525C60.3822 35.9962 59.7992 36.0763 59.2124 36.0913C58.3095 36.0913 57.908 35.7153 57.908 34.8732V26.4033H61.4493C61.7885 26.4023 62.0632 26.1386 62.0643 25.8131V23.1665C62.0643 23.0094 61.9993 22.8588 61.8836 22.7478C61.7679 22.6367 61.6109 22.5743 61.4473 22.5743H57.908V18.4935C57.908 18.322 57.8306 18.1589 57.6957 18.0464C57.5608 17.9339 57.3817 17.8831 57.2048 17.9071L53.5577 18.3939C53.2524 18.4343 53.025 18.6846 53.025 18.9804V22.5743H51.0389C50.8752 22.5743 50.7183 22.6367 50.6026 22.7478C50.4869 22.8588 50.4219 23.0094 50.4219 23.1665V25.8131C50.4219 25.9701 50.4869 26.1207 50.6026 26.2317C50.7183 26.3428 50.8752 26.4052 51.0389 26.4052H53.025V35.4277C53.025 38.5274 54.7231 40.0988 58.0705 40.0988C59.302 40.0761 60.5239 39.8862 61.7 39.5349C61.9801 39.4413 62.1512 39.1697 62.1074 38.8883L61.7156 36.3469L61.7098 36.3394Z" fill="#000223"/>
<path opacity="0.5" d="M68.0469 16.4729H64.2165C63.8642 16.4769 63.5803 16.7373 63.5781 17.0585V39.5094C63.5781 39.8349 63.8676 40.0987 64.2247 40.0987H68.0469C68.404 40.0987 68.6935 39.8349 68.6935 39.5094V17.0585C68.6935 16.733 68.404 16.4691 68.0469 16.4691V16.4729Z" fill="#000223"/>
<path opacity="0.5" fill-rule="evenodd" clip-rule="evenodd" d="M71.2155 22.9116C73.0516 22.4477 74.939 22.2079 76.8351 22.1975C82.0798 22.1975 84.0369 23.8932 84.0369 28.483V39.1548C84.0389 39.3199 83.9705 39.4784 83.8483 39.5921C83.7261 39.7058 83.561 39.7644 83.3929 39.754H80.5091C80.2388 39.7507 80.0035 39.5723 79.9323 39.3168L79.7785 38.7667C78.291 39.6371 76.5912 40.0973 74.8587 40.0987C71.8672 40.0987 70.1523 38.192 70.1523 34.8684C70.1523 31.394 71.7173 29.9112 75.3855 29.9112H79.2306V28.4152C79.2306 26.6987 78.8249 26.1542 76.241 26.1542C74.7842 26.1722 73.3322 26.323 71.9038 26.6045C71.7428 26.6351 71.5761 26.6005 71.4417 26.5085C71.3073 26.4166 71.2167 26.2751 71.1905 26.1165L70.7714 23.5692C70.728 23.2713 70.9188 22.9888 71.2155 22.9116ZM79.2305 35.5127V33.4402L76.339 33.4477C75.022 33.4477 74.8125 33.7774 74.8125 34.8401C74.8125 35.9329 75.1528 36.2664 76.2679 36.2664C77.3029 36.2526 78.3193 35.994 79.2305 35.5127Z" fill="#000223"/>
<path opacity="0.5" d="M93.2808 29.0961C91.0771 28.5308 91.0771 28.5119 91.0771 27.3173C91.0771 26.5145 91.1573 26.1301 92.9736 26.1301C94.4014 26.1662 95.8247 26.3048 97.2321 26.5447C97.3946 26.5722 97.5615 26.5327 97.6937 26.4355C97.826 26.3384 97.9123 26.1919 97.9323 26.0303L98.2681 23.3564C98.3064 23.0548 98.108 22.7734 97.8083 22.7044C96.2184 22.3694 94.5974 22.1995 92.9717 22.1975C87.5093 22.1975 86.3894 24.2345 86.3894 27.2852C86.3894 30.6469 87.0209 31.7775 91.2088 32.7837C93.9657 33.4395 93.9657 33.9256 93.9657 34.7321C93.9657 35.793 93.8742 36.1586 92.0693 36.1586C90.5117 36.1448 88.9619 35.9391 87.4559 35.5462C87.2938 35.5035 87.121 35.5297 86.9793 35.6185C86.8376 35.7073 86.7399 35.8505 86.7099 36.0135L86.2405 38.5517C86.1857 38.8449 86.3596 39.1328 86.6469 39.2244C88.474 39.7735 90.3697 40.0677 92.2791 40.0987C97.5698 40.0987 98.6535 37.911 98.6535 34.6342C98.6535 31.0068 98.001 30.336 93.2827 29.1017L93.2808 29.0961Z" fill="#000223"/>
<path opacity="0.5" d="M107.172 29.0961C104.969 28.5308 104.969 28.5119 104.969 27.3173C104.969 26.5145 105.049 26.1301 106.865 26.1301C108.292 26.1662 109.715 26.3048 111.121 26.5447C111.283 26.5722 111.45 26.5329 111.581 26.4361C111.713 26.3393 111.799 26.1933 111.819 26.0321L112.155 23.3583C112.193 23.0567 111.995 22.7753 111.695 22.7063C110.11 22.3714 108.494 22.2009 106.872 22.1975C101.413 22.1975 100.293 24.2345 100.293 27.2852C100.293 30.6469 100.924 31.7775 105.11 32.7837C107.866 33.4395 107.866 33.9256 107.866 34.7321C107.866 35.793 107.775 36.1586 105.97 36.1586C104.408 36.1457 102.853 35.9393 101.342 35.5443C101.18 35.5016 101.007 35.5279 100.866 35.6166C100.724 35.7054 100.626 35.8486 100.596 36.0116L100.127 38.5498C100.072 38.843 100.246 39.1309 100.533 39.2225C102.361 39.7728 104.258 40.0677 106.169 40.0987C111.457 40.0987 112.54 37.911 112.54 34.6342C112.54 31.0068 111.888 30.336 107.172 29.1017V29.0961Z" fill="#000223"/>
<path opacity="0.5" d="M118.465 16.4729H114.646C114.291 16.4729 114.002 16.7366 114 17.0632V20.1713C114 20.4994 114.289 20.7654 114.646 20.7654H118.465C118.637 20.7664 118.803 20.7043 118.925 20.5927C119.047 20.4812 119.115 20.3295 119.115 20.1713V17.0632C119.115 16.7351 118.826 16.4691 118.469 16.4691L118.465 16.4729Z" fill="#000223"/>
<path opacity="0.5" d="M118.465 22.9136H114.646C114.475 22.9136 114.31 22.976 114.189 23.0871C114.068 23.1982 114 23.3489 114 23.506V39.5064C114 39.8335 114.289 40.0987 114.646 40.0987H118.465C118.637 40.0998 118.803 40.0378 118.925 39.9266C119.047 39.8154 119.115 39.6641 119.115 39.5064V23.506C119.115 23.3489 119.047 23.1982 118.926 23.0871C118.805 22.976 118.641 22.9136 118.469 22.9136H118.465Z" fill="#000223"/>
<path opacity="0.5" fill-rule="evenodd" clip-rule="evenodd" d="M122.379 22.9026C124.217 22.4424 126.106 22.2056 128.004 22.1975C133.261 22.1975 135.216 23.8943 135.193 28.487V39.1599C135.193 39.4878 134.921 39.7537 134.586 39.7537H131.694C131.423 39.7505 131.187 39.572 131.116 39.3163L130.961 38.7658C129.47 39.6368 127.765 40.0973 126.028 40.0987C123.028 40.0987 121.309 38.1908 121.309 34.8651C121.309 31.3885 122.878 29.9048 126.556 29.9048H130.412V28.4078C130.412 26.6921 129.997 26.1567 127.406 26.1567C125.952 26.1759 124.502 26.3267 123.076 26.6073C122.915 26.6379 122.748 26.6033 122.613 26.5113C122.478 26.4192 122.387 26.2777 122.361 26.119L121.941 23.57C121.891 23.271 122.08 22.9834 122.379 22.9026ZM130.412 35.5212V33.4473L127.512 33.4548C126.192 33.4548 125.982 33.7848 125.982 34.8481C125.982 35.9416 126.323 36.2753 127.441 36.2753C128.479 36.2614 129.498 36.0027 130.412 35.5212Z" fill="#000223"/>
<path opacity="0.5" d="M147.958 22.9283C146.094 22.9283 143.555 23.555 141.41 24.5375L141.153 23.6656C141.079 23.4193 140.849 23.2492 140.586 23.2472H137.978C137.649 23.2472 137.383 23.5072 137.383 23.8279V39.5181C137.383 39.8388 137.649 40.0988 137.978 40.0988H141.495C141.823 40.0988 142.09 39.8388 142.09 39.5181V28.6592C143.357 28.0306 145.138 27.3799 146.203 27.3799C146.995 27.3799 147.289 27.6675 147.289 28.4398V39.5181C147.289 39.8388 147.556 40.0988 147.884 40.0988H151.403C151.732 40.0988 151.998 39.8388 151.998 39.5181V27.9974C151.998 24.6242 150.638 22.9136 147.958 22.9136V22.9283Z" fill="#000223"/>
<path opacity="0.5" d="M34.9203 9.64022C34.7633 9.43199 34.5172 9.30919 34.2556 9.30859C34.1218 9.30862 33.9901 9.34204 33.8725 9.4058C29.0018 12.0588 23.3533 13.4635 17.5402 13.4635C11.7271 13.4635 6.07865 12.0588 1.20787 9.4058C1.09038 9.34196 0.958654 9.30854 0.824795 9.30859C0.563218 9.30919 0.317108 9.43199 0.160163 9.64022C-0.103532 9.99413 -0.0346057 10.4929 0.315307 10.7628C2.74251 12.5694 5.44047 13.9844 8.31005 14.9558C11.2823 15.9588 14.3998 16.47 17.5383 16.4691C20.6768 16.4701 23.7943 15.9589 26.7665 14.9558C29.6373 13.9845 32.3366 12.5695 34.7651 10.7628C35.1123 10.4926 35.1795 9.99601 34.9164 9.64403L34.9203 9.64022Z" fill="#000223"/>
<path opacity="0.5" d="M29.7168 17.3198C29.5363 17.1858 29.2974 17.1526 29.0855 17.2319C27.7281 17.7309 26.3376 18.1399 24.9235 18.4562C24.6613 18.5162 24.4461 18.6979 24.3479 18.9422C23.3885 21.4917 20.9534 23.9178 18.3994 26.4598C18.2769 26.5948 18.1027 26.6746 17.9178 26.6804C17.7327 26.6758 17.558 26.5958 17.4362 26.4598C14.8745 23.9197 12.4318 21.501 11.4724 18.9515C11.3742 18.7072 11.1589 18.5255 10.8967 18.4656C9.48176 18.1448 8.09063 17.7314 6.7328 17.2282C6.65809 17.2001 6.57876 17.1856 6.4987 17.1852C6.35591 17.1844 6.21688 17.2297 6.10341 17.3142C5.92626 17.4467 5.83076 17.6581 5.85013 17.8749C6.06696 19.9945 6.9266 22.0674 8.47896 24.23C9.93729 26.2711 11.8408 28.1552 13.6791 29.9888C17.0678 33.3532 20.2703 36.5308 20.5505 40.2242C20.5756 40.5571 20.8602 40.8147 21.2029 40.8148H25.1845C25.3639 40.815 25.5354 40.7435 25.6591 40.617C25.7828 40.4905 25.8478 40.3201 25.8388 40.1457C25.7141 37.6803 24.7604 35.2111 22.926 32.5981C22.5422 32.0504 22.1297 31.5177 21.6999 30.9962C21.5526 30.8138 21.5666 30.5534 21.7325 30.3869L22.1316 29.9906C23.9718 28.1626 25.8734 26.2729 27.3317 24.2318C28.8841 22.0599 29.7437 20.0001 29.9605 17.8768C29.98 17.6573 29.8848 17.4431 29.7073 17.3067L29.7168 17.3198Z" fill="#000223"/>
<path opacity="0.5" d="M13.2045 32.4033C13.0834 32.2826 12.9122 32.2167 12.735 32.2225C12.5119 32.2268 12.3062 32.3356 12.1879 32.5118C10.4961 34.907 9.62111 37.1775 9.50082 39.4497C9.49178 39.619 9.55768 39.7842 9.6831 39.9069C9.80853 40.0296 9.9825 40.0989 10.1643 40.0987H14.1823C14.5292 40.0979 14.8176 39.8496 14.8458 39.5275C14.9595 38.3481 15.3418 37.205 15.9672 36.1742C16.1389 35.8741 16.1071 35.5082 15.8857 35.2378C15.0479 34.2483 14.1528 33.302 13.2045 32.4033Z" fill="#000223"/>
<path opacity="0.5" d="M17.5432 18.6899C18.8309 18.6899 19.5798 18.6173 19.8413 18.6173C20.185 18.6204 20.4623 18.8824 20.4633 19.2053C20.4629 19.2857 20.4461 19.3653 20.4138 19.4397C19.8536 20.6753 19.0405 21.7955 18.0207 22.7368C17.8943 22.8527 17.7238 22.9163 17.5472 22.9135C17.3706 22.9163 17.2001 22.8527 17.0737 22.7368C16.0487 21.7968 15.2308 20.6765 14.6667 19.4397C14.6343 19.3653 14.6175 19.2857 14.6172 19.2053C14.6177 19.0488 14.6844 18.899 14.8025 18.7888C14.9207 18.6785 15.0806 18.6168 15.2472 18.6173C15.5087 18.6173 16.2575 18.6899 17.5452 18.6899H17.5432Z" fill="#000223"/>
</g>
</svg>
