<svg width="243" height="19" viewBox="0 0 243 19" fill="none" xmlns="http://www.w3.org/2000/svg">
<path fill-rule="evenodd" clip-rule="evenodd" d="M234.564 4.3671C234.564 3.96104 234.639 3.52881 234.738 3.13525C234.955 2.28217 235.41 1.67933 236.19 1.24938C238.3 0.0880544 240.321 2.51535 241.45 3.95762V1.7362C240.31 0.896774 239.138 0.555542 237.788 0.555542C235.913 0.555542 233.03 1.89545 233.03 5.0234C233.03 7.82504 235.187 9.17945 237.223 10.458C239.043 11.601 240.767 12.6833 240.767 14.6848C240.767 15.7859 240.486 17.2861 239.471 17.9345C238.79 18.3701 237.815 18.3576 237.042 18.2382C236.15 18.0971 235.463 17.5114 234.829 16.9131C234.206 16.3321 233.649 15.6839 233.169 14.9805V17.2714C233.946 18.1324 235.637 18.8569 237.057 18.8569C239.916 18.8569 242.55 17.0677 242.55 14.14C242.55 10.9995 240.231 9.64403 238.092 8.3942C236.262 7.32503 234.564 6.33313 234.564 4.3671ZM87.249 0.657913L88.7981 3.78246L88.7993 3.78018L89.2247 4.64464L89.6512 5.50454H88.7981L88.3659 4.64464H86.1252L85.6986 5.50454H84.8387L85.2664 4.64577L85.6986 3.78132L87.249 0.657913ZM224.673 5.63649C224.673 3.00445 223.255 0.781898 218.607 0.781898H214.924V18.6067H216.96V10.9893C217.921 11.012 218.813 10.9438 219.64 10.7845C220.414 11.6996 221.928 13.6941 223.624 15.9277L223.628 15.9327L223.639 15.9478C224.298 16.8148 224.983 17.7175 225.663 18.6067H228.285C226.876 16.821 225.391 14.9215 224.18 13.3713C222.819 11.6295 221.802 10.3288 221.625 10.126C223.574 9.21828 224.673 7.60994 224.673 5.63649ZM62.9453 18.6113H74.3026V15.431H66.1563V11.277H72.7079V8.11951H66.1563V3.96786H74.3026V0.787582H62.9453V18.6113ZM216.961 10.4809V10.482L216.96 10.4808L216.961 10.4809ZM222.566 6.04483C222.566 8.71756 220.94 10.5237 216.961 10.4809V1.25621H218.06C220.506 1.34834 222.566 3.18644 222.566 6.04483ZM0.328125 18.6101H3.53912V11.277H10.0908V8.11951H3.53912V3.96786H11.6832V0.787582H0.328125V18.6101ZM86.5494 3.78246L87.2478 2.3834L87.9394 3.78246H86.5494ZM38.5495 0.787572V0.786442H38.5484L38.5495 0.787572ZM38.5495 18.6101V0.787572L46.565 8.75421L54.6078 0.787579V18.6113H51.3957V8.47439L46.5923 13.238H46.565L41.7616 8.47553V18.6101H38.5495ZM23.9527 0.786442L29.6547 12.2723H29.657L31.2244 15.4549L32.7941 18.6113H29.657L28.0646 15.4549H19.8147L18.2485 18.6113H15.0875L16.6561 15.4549L18.2485 12.2723L23.9527 0.786442ZM21.3821 12.2723L23.9516 7.12654L26.4961 12.2723H21.3821ZM128.262 3.90758L126.993 0.781898L126.996 0.783036H129.211L136.448 18.6067H134.223L128.768 5.15876L123.387 18.6067H122.334L128.262 3.90758ZM191.697 15.1637L178.63 0.781898H176.641V18.6067H177.62V2.73488L192.335 18.6067H192.68V0.783036H191.697V15.1637ZM163.073 1.71346H156.847V0.780758H171.308V1.71346H165.109V18.6067H163.073V1.71346ZM92.8065 9.97468L90.0289 7.21411V12.0596H90.8933V9.30245L92.8065 11.194L93.6812 12.0585V7.21297H92.8065V9.97468ZM145.842 0.781898C150.487 0.781898 151.904 3.00445 151.904 5.63649C151.904 7.60994 150.81 9.21828 148.861 10.126C149.039 10.3297 150.064 11.6408 151.434 13.3939L151.435 13.3959C152.643 14.9415 154.119 16.8304 155.52 18.6067H152.899C152.191 17.6824 151.478 16.7435 150.795 15.8452C149.124 13.6451 147.637 11.6883 146.87 10.7845C146.048 10.9438 145.157 11.012 144.195 10.9893V18.6067H142.157V0.781898H145.842ZM144.195 10.4808V1.25621H145.292C147.74 1.34834 149.799 3.18644 149.799 6.04483C149.799 8.71781 148.176 10.5241 144.195 10.4808ZM108.968 0.783028H112.654C117.3 0.783028 118.716 3.00445 118.716 5.63648C118.716 6.28027 118.515 7.04577 118.277 7.63837C117.802 8.82586 116.837 9.62776 115.686 10.151C114.223 10.8118 112.459 11.0245 111.007 10.9904V18.6067H108.968V0.783028ZM111.007 10.4808V1.25849H112.105C114.552 1.34948 116.614 3.18758 116.614 6.04597C116.614 8.72122 114.988 10.5252 111.007 10.482V10.4808ZM95.989 13.768C96.637 13.7643 97.2596 14.0198 97.7179 14.4778H97.7157C97.9379 14.6989 98.1156 14.9607 98.2389 15.249C98.3686 15.5436 98.4323 15.8586 98.4323 16.1896C98.4323 16.5218 98.3686 16.8368 98.2389 17.1303C98.1159 17.4191 97.9382 17.6813 97.7157 17.9026C97.258 18.3617 96.635 18.6174 95.9868 18.6124H94.4945V13.768H95.989ZM97.445 16.7993C97.3631 16.987 97.2494 17.1519 97.106 17.2952C96.9616 17.4351 96.7944 17.5455 96.6033 17.6251C96.4133 17.7081 96.2063 17.7502 95.9891 17.7502H95.3669V14.6336H95.9879C96.2063 14.6336 96.4133 14.6723 96.6033 14.7553C96.9823 14.9121 97.2846 15.2115 97.445 15.5891C97.5246 15.7756 97.5678 15.9758 97.5678 16.1897C97.5678 16.4092 97.5257 16.6116 97.445 16.7993ZM207.944 18.6215H199.655V18.6203V0.793274H207.944V1.7237H201.695V7.77942H205.754L206.867 8.67004H201.695V17.7127H207.944V18.6215Z" fill="#000223" fill-opacity="0.5"/>
</svg>
