<svg width="93" height="71" viewBox="0 0 93 71" fill="none" xmlns="http://www.w3.org/2000/svg">
<g opacity="0.5">
<path opacity="0.5" fill-rule="evenodd" clip-rule="evenodd" d="M59.7852 33.3302C59.653 31.15 58.9559 29.6008 57.6939 28.6825C56.4319 27.7642 54.8213 27.3183 52.8622 27.3447C51.2007 27.3114 49.6886 27.6676 48.3258 28.4135C46.9631 29.1594 46.2408 30.4949 46.1589 32.42C46.2345 34.279 46.935 35.5329 48.2606 36.1817C49.5861 36.8305 51.0833 37.3051 52.7523 37.6057C53.7884 37.8289 54.8297 38.0812 55.876 38.3627C56.9223 38.6441 57.8007 39.1049 58.5113 39.7449C59.2218 40.3849 59.5915 41.3545 59.6204 42.6534C59.5471 44.3366 58.8694 45.556 57.5874 46.3117C56.3054 47.0673 54.8585 47.4386 53.2468 47.4253C51.1234 47.4512 49.4156 46.965 48.1232 45.9669C46.8309 44.9687 46.167 43.3034 46.1315 40.9708H45.582C45.5872 43.4349 46.298 45.2233 47.7146 46.3358C49.1311 47.4483 50.9752 47.9954 53.2468 47.977C55.0016 47.9891 56.5744 47.5719 57.9652 46.7254C59.3559 45.8789 60.0908 44.5308 60.1698 42.681C60.1189 40.7128 59.4584 39.4015 58.1884 38.7469C56.9183 38.0924 55.3444 37.5741 53.4666 37.1919C51.7186 36.8655 50.1733 36.415 48.8306 35.8403C47.4879 35.2657 46.7805 34.1256 46.7084 32.42C46.7914 30.6869 47.4702 29.4916 48.7448 28.8342C50.0194 28.1768 51.3918 27.8642 52.8622 27.8963C54.6696 27.8711 56.1577 28.2733 57.3264 29.1031C58.4951 29.9329 59.1316 31.342 59.2358 33.3302H59.7852ZM62.6038 37.5229H70.4883C71.9346 37.5016 73.2109 37.8476 74.3173 38.5607C75.4236 39.2739 76.0062 40.4818 76.0652 42.1845C76.0285 43.7953 75.4837 44.994 74.4306 45.7807C73.3775 46.5674 72.0359 46.9593 70.4059 46.9564H62.6038V37.5229ZM70.1586 47.5081H62.0543V27.8136H70.4883C72.0645 27.813 73.3694 28.221 74.4031 29.0376C75.4367 29.8542 75.9724 31.0828 76.0102 32.7234C75.9867 33.9382 75.5941 34.9634 74.8323 35.799C74.0705 36.6345 73.0804 37.108 71.8619 37.2195V37.2747C73.1777 37.3247 74.2892 37.7695 75.1963 38.609C76.1035 39.4486 76.5762 40.6312 76.6146 42.1569C76.5808 43.9246 75.9753 45.2577 74.798 46.1565C73.6207 47.0553 72.0742 47.5058 70.1586 47.5081ZM62.6038 28.3653H70.4883C71.9214 28.3607 73.1004 28.7147 74.0254 29.4272C74.9502 30.1398 75.4287 31.2385 75.4608 32.7234C75.4167 34.1313 74.9142 35.191 73.9532 35.9024C72.9923 36.6138 71.8373 36.9701 70.4883 36.9713H62.6038V28.3653ZM89.9241 28.6825C91.1861 29.6008 91.8832 31.15 92.0154 33.3302H91.466C91.3618 31.342 90.7254 29.9329 89.5567 29.1031C88.388 28.2733 86.8999 27.8711 85.0924 27.8963C83.6221 27.8642 82.2496 28.1768 80.975 28.8342C79.7004 29.4916 79.0216 30.6869 78.9387 32.42C79.0108 34.1256 79.7182 35.2657 81.0609 35.8403C82.4036 36.415 83.9489 36.8655 85.6968 37.1919C87.5747 37.5741 89.1486 38.0924 90.4186 38.7469C91.6886 39.4015 92.3491 40.7128 92.4001 42.681C92.3211 44.5308 91.5862 45.8789 90.1954 46.7254C88.8046 47.5719 87.2318 47.9891 85.4771 47.977C83.2054 47.9954 81.3614 47.4483 79.9448 46.3358C78.5283 45.2233 77.8174 43.4349 77.8123 40.9708H78.3617C78.3972 43.3034 79.0611 44.9687 80.3535 45.9669C81.6458 46.965 83.3537 47.4512 85.4771 47.4253C87.0887 47.4386 88.5356 47.0673 89.8177 46.3117C91.0997 45.556 91.7773 44.3366 91.8506 42.6534C91.8218 41.3545 91.4521 40.3849 90.7415 39.7449C90.031 39.1049 89.1526 38.6441 88.1063 38.3627C87.0599 38.0812 86.0187 37.8289 84.9826 37.6057C83.3136 37.3051 81.8164 36.8305 80.4908 36.1817C79.1653 35.5329 78.4648 34.279 78.3892 32.42C78.4711 30.4949 79.1933 29.1594 80.5561 28.4135C81.9188 27.6676 83.4309 27.3114 85.0924 27.3447C87.0515 27.3183 88.6621 27.7642 89.9241 28.6825Z" fill="#000223"/>
<path opacity="0.5" d="M57.6939 28.6825L57.9881 28.2782H57.988L57.6939 28.6825ZM59.7852 33.3302V33.8302H60.3164L60.2843 33.3L59.7852 33.3302ZM52.8622 27.3447L52.8522 27.8446L52.8605 27.8447L52.8689 27.8446L52.8622 27.3447ZM48.3258 28.4135L48.0858 27.9749L48.3258 28.4135ZM46.1589 32.42L45.6594 32.3988L45.6585 32.4195L45.6594 32.4403L46.1589 32.42ZM48.2606 36.1817L48.4804 35.7326L48.2606 36.1817ZM52.7523 37.6057L52.8576 37.1169L52.8493 37.1151L52.8409 37.1136L52.7523 37.6057ZM55.876 38.3627L56.0059 37.8798L55.876 38.3627ZM58.5113 39.7449L58.8459 39.3734L58.5113 39.7449ZM59.6204 42.6534L60.1199 42.6752L60.1206 42.6587L60.1202 42.6423L59.6204 42.6534ZM57.5874 46.3117L57.8413 46.7424L57.5874 46.3117ZM53.2468 47.4253L53.2509 46.9252L53.2407 46.9254L53.2468 47.4253ZM48.1232 45.9669L48.4289 45.5712L48.1232 45.9669ZM46.1315 40.9708L46.6314 40.9632L46.6239 40.4708H46.1315V40.9708ZM45.582 40.9708V40.4708H45.081L45.082 40.9719L45.582 40.9708ZM47.7146 46.3358L48.0234 45.9426L47.7146 46.3358ZM53.2468 47.977L53.2502 47.477H53.2427L53.2468 47.977ZM57.9652 46.7254L58.2251 47.1525L57.9652 46.7254ZM60.1698 42.681L60.6694 42.7023L60.6701 42.6852L60.6696 42.6681L60.1698 42.681ZM58.1884 38.7469L58.4174 38.3025L58.1884 38.7469ZM53.4666 37.1919L53.5663 36.7019L53.5584 36.7004L53.4666 37.1919ZM48.8306 35.8403L49.0274 35.3807L48.8306 35.8403ZM46.7084 32.42L46.209 32.3961L46.2079 32.4186L46.2088 32.4411L46.7084 32.42ZM48.7448 28.8342L48.5156 28.3898L48.7448 28.8342ZM52.8622 27.8963L52.8513 28.3962L52.8602 28.3964L52.8692 28.3963L52.8622 27.8963ZM57.3264 29.1031L57.6159 28.6954L57.3264 29.1031ZM59.2358 33.3302L58.7364 33.3564L58.7613 33.8302H59.2358V33.3302ZM70.4883 37.5229V38.023L70.4957 38.0228L70.4883 37.5229ZM62.6038 37.5229V37.0229H62.1038V37.5229H62.6038ZM74.3173 38.5607L74.5882 38.1405L74.3173 38.5607ZM76.0652 42.1845L76.5651 42.1959L76.5654 42.1815L76.5649 42.1672L76.0652 42.1845ZM74.4306 45.7807L74.7298 46.1812L74.4306 45.7807ZM70.4059 46.9564L70.4068 46.4564H70.4059V46.9564ZM62.6038 46.9564H62.1038V47.4564H62.6038V46.9564ZM62.0543 47.5081H61.5543V48.0081H62.0543V47.5081ZM70.1586 47.5081V48.0081H70.1592L70.1586 47.5081ZM62.0543 27.8136V27.3136H61.5543V27.8136H62.0543ZM70.4883 27.8136V28.3136H70.4884L70.4883 27.8136ZM74.4031 29.0376L74.713 28.6453V28.6452L74.4031 29.0376ZM76.0102 32.7234L76.5101 32.7331L76.5103 32.7225L76.51 32.7119L76.0102 32.7234ZM74.8323 35.799L75.2018 36.1358L74.8323 35.799ZM71.8619 37.2195L71.8163 36.7216L71.3619 36.7632V37.2195H71.8619ZM71.8619 37.2747H71.3619V37.756L71.8429 37.7743L71.8619 37.2747ZM75.1963 38.609L75.5359 38.2421V38.242L75.1963 38.609ZM76.6146 42.1569L77.1145 42.1665L77.1147 42.1554L77.1144 42.1443L76.6146 42.1569ZM74.798 46.1565L75.1014 46.5539L74.798 46.1565ZM70.4883 28.3653V28.8653H70.4899L70.4883 28.3653ZM62.6038 28.3653V27.8653H62.1038V28.3653H62.6038ZM74.0254 29.4272L74.3305 29.0311L74.0254 29.4272ZM75.4608 32.7234L75.9605 32.7391L75.961 32.7258L75.9607 32.7126L75.4608 32.7234ZM73.9532 35.9024L73.6557 35.5005L73.9532 35.9024ZM70.4883 36.9713V37.4713H70.4887L70.4883 36.9713ZM62.6038 36.9713H62.1038V37.4713H62.6038V36.9713ZM92.0154 33.3302V33.8302H92.5467L92.5145 33.3L92.0154 33.3302ZM89.9241 28.6825L90.2183 28.2782L89.9241 28.6825ZM91.466 33.3302L90.9667 33.3564L90.9915 33.8302H91.466V33.3302ZM89.5567 29.1031L89.8461 28.6954L89.5567 29.1031ZM85.0924 27.8963L85.0815 28.3962L85.0905 28.3964L85.0994 28.3963L85.0924 27.8963ZM80.975 28.8342L80.7458 28.3898L80.975 28.8342ZM78.9387 32.42L78.4392 32.3961L78.4382 32.4186L78.4391 32.4411L78.9387 32.42ZM81.0609 35.8403L81.2576 35.3807L81.0609 35.8403ZM85.6968 37.1919L85.7966 36.7019L85.7886 36.7004L85.6968 37.1919ZM90.4186 38.7469L90.6477 38.3025L90.4186 38.7469ZM92.4001 42.681L92.8996 42.7023L92.9003 42.6852L92.8999 42.6681L92.4001 42.681ZM90.1954 46.7254L90.4554 47.1525L90.1954 46.7254ZM85.4771 47.977L85.4805 47.477H85.473L85.4771 47.977ZM79.9448 46.3358L80.2537 45.9426L79.9448 46.3358ZM77.8123 40.9708V40.4708H77.3113L77.3123 40.9719L77.8123 40.9708ZM78.3617 40.9708L78.8617 40.9632L78.8542 40.4708H78.3617V40.9708ZM80.3535 45.9669L80.6591 45.5712L80.3535 45.9669ZM85.4771 47.4253L85.4812 46.9252L85.471 46.9254L85.4771 47.4253ZM89.8177 46.3117L90.0716 46.7424L89.8177 46.3117ZM91.8506 42.6534L92.3501 42.6752L92.3509 42.6587L92.3505 42.6423L91.8506 42.6534ZM90.7415 39.7449L91.0762 39.3734L90.7415 39.7449ZM88.1063 38.3627L88.2361 37.8798L88.1063 38.3627ZM84.9826 37.6057L85.0879 37.1169L85.0795 37.1151L85.0712 37.1136L84.9826 37.6057ZM80.4908 36.1817L80.7107 35.7326H80.7106L80.4908 36.1817ZM78.3892 32.42L77.8897 32.3988L77.8888 32.4195L77.8896 32.4403L78.3892 32.42ZM80.5561 28.4135L80.316 27.9749L80.5561 28.4135ZM85.0924 27.3447L85.0824 27.8446L85.0908 27.8447L85.0992 27.8446L85.0924 27.3447ZM57.3997 29.0867C58.4982 29.8861 59.1591 31.267 59.2861 33.3605L60.2843 33.3C60.1468 31.0331 59.4135 29.3154 57.9881 28.2782L57.3997 29.0867ZM52.8689 27.8446C54.748 27.8193 56.2452 28.2467 57.3997 29.0868L57.988 28.2782C56.6185 27.2816 54.8946 26.8172 52.8554 26.8447L52.8689 27.8446ZM48.5659 28.8521C49.8467 28.1511 51.2716 27.8129 52.8522 27.8446L52.8722 26.8448C51.1297 26.8098 49.5304 27.1842 48.0858 27.9749L48.5659 28.8521ZM46.6585 32.4412C46.735 30.6424 47.3952 29.4929 48.5659 28.8521L48.0858 27.9749C46.531 28.8259 45.7466 30.3474 45.6594 32.3988L46.6585 32.4412ZM48.4804 35.7326C47.3648 35.1866 46.7289 34.1315 46.6585 32.3997L45.6594 32.4403C45.7401 34.4265 46.5053 35.8792 48.0408 36.6308L48.4804 35.7326ZM52.8409 37.1136C51.2108 36.82 49.7587 36.3583 48.4804 35.7326L48.0408 36.6308C49.4135 37.3027 50.9559 37.7902 52.6637 38.0978L52.8409 37.1136ZM56.0059 37.8798C54.9516 37.5963 53.9022 37.3419 52.8576 37.1169L52.647 38.0945C53.6747 38.3159 54.7077 38.5662 55.7461 38.8455L56.0059 37.8798ZM58.8459 39.3734C58.0695 38.674 57.1181 38.179 56.0059 37.8798L55.7461 38.8455C56.7266 39.1093 57.532 39.5358 58.1767 40.1164L58.8459 39.3734ZM60.1202 42.6423C60.0895 41.2568 59.6915 40.1351 58.8459 39.3734L58.1767 40.1164C58.7521 40.6348 59.0936 41.4521 59.1205 42.6645L60.1202 42.6423ZM57.8413 46.7424C59.2905 45.8882 60.0404 44.5012 60.1199 42.6752L59.1208 42.6317C59.0538 44.172 58.4484 45.2238 57.3335 45.8809L57.8413 46.7424ZM53.2427 47.9253C54.9373 47.9392 56.4747 47.5479 57.8413 46.7424L57.3335 45.8809C56.1361 46.5867 54.7797 46.9379 53.2509 46.9254L53.2427 47.9253ZM47.8176 46.3626C49.2228 47.448 51.051 47.9521 53.2529 47.9253L53.2407 46.9254C51.1959 46.9503 49.6083 46.4821 48.4289 45.5712L47.8176 46.3626ZM45.6315 40.9784C45.6683 43.395 46.3595 45.2364 47.8176 46.3626L48.4289 45.5712C47.3022 44.701 46.6656 43.2118 46.6314 40.9632L45.6315 40.9784ZM45.582 41.4708H46.1315V40.4708H45.582V41.4708ZM48.0234 45.9426C46.7676 44.9563 46.087 43.3408 46.082 40.9698L45.082 40.9719C45.0874 43.5291 45.8284 45.4902 47.4057 46.729L48.0234 45.9426ZM53.2427 47.477C51.0543 47.4947 49.3296 46.9684 48.0234 45.9426L47.4057 46.729C48.9326 47.9282 50.8961 48.496 53.2508 48.477L53.2427 47.477ZM57.7052 46.2983C56.3999 47.0927 54.9197 47.4885 53.2502 47.477L53.2434 48.477C55.0835 48.4896 56.7488 48.051 58.2251 47.1525L57.7052 46.2983ZM59.6703 42.6597C59.5972 44.3694 58.932 45.5517 57.7052 46.2983L58.2251 47.1525C59.7799 46.2062 60.5844 44.6922 60.6694 42.7023L59.6703 42.6597ZM57.9593 39.1914C59.0077 39.7317 59.6217 40.8299 59.67 42.6939L60.6696 42.6681C60.616 40.5957 59.9091 39.0713 58.4174 38.3025L57.9593 39.1914ZM53.3669 37.6819C55.214 38.0578 56.7413 38.5637 57.9593 39.1914L58.4174 38.3025C57.0954 37.6212 55.4748 37.0904 53.5663 36.702L53.3669 37.6819ZM48.6339 36.3C50.0167 36.8918 51.5983 37.3517 53.3748 37.6834L53.5584 36.7004C51.839 36.3794 50.33 35.9382 49.0274 35.3807L48.6339 36.3ZM46.2088 32.4411C46.2476 33.3569 46.4584 34.1575 46.8682 34.8179C47.2808 35.4829 47.877 35.9761 48.6339 36.3L49.0274 35.3807C48.4416 35.13 48.0127 34.7657 47.7179 34.2907C47.4203 33.811 47.2413 33.1887 47.2079 32.3989L46.2088 32.4411ZM48.5156 28.3898C47.0466 29.1475 46.2984 30.5287 46.209 32.3961L47.2078 32.4439C47.2844 30.8451 47.8937 29.8357 48.974 29.2785L48.5156 28.3898ZM52.8731 27.3965C51.3216 27.3625 49.8663 27.6932 48.5156 28.3898L48.974 29.2785C50.1725 28.6604 51.4621 28.3658 52.8513 28.3962L52.8731 27.3965ZM57.6159 28.6954C56.3403 27.7898 54.7408 27.37 52.8552 27.3964L52.8692 28.3963C54.5985 28.3721 55.9751 28.7569 57.037 29.5108L57.6159 28.6954ZM59.7351 33.3041C59.6262 31.226 58.9527 29.6446 57.6159 28.6954L57.037 29.5108C58.0375 30.2212 58.637 31.4579 58.7364 33.3564L59.7351 33.3041ZM59.7852 32.8302H59.2358V33.8302H59.7852V32.8302ZM70.4883 37.0229H62.6038V38.0229H70.4883V37.0229ZM74.5882 38.1405C73.3908 37.3687 72.0157 37.0004 70.481 37.023L70.4957 38.0228C71.8535 38.0029 73.031 38.3265 74.0464 38.981L74.5882 38.1405ZM76.5649 42.1672C76.5021 40.3544 75.8717 38.9679 74.5882 38.1405L74.0464 38.981C74.9754 39.5799 75.5103 40.6092 75.5655 42.2018L76.5649 42.1672ZM74.7298 46.1812C75.9339 45.2818 76.5258 43.9219 76.5651 42.1959L75.5653 42.1731C75.5313 43.6686 75.0335 44.7062 74.1313 45.3801L74.7298 46.1812ZM70.405 47.4564C72.1168 47.4594 73.571 47.0469 74.7298 46.1812L74.1313 45.3801C73.1839 46.0879 71.955 46.4592 70.4068 46.4564L70.405 47.4564ZM62.6038 47.4564H70.4059V46.4564H62.6038V47.4564ZM62.1038 37.5229V46.9564H63.1038V37.5229H62.1038ZM62.0543 48.0081H70.1586V47.0081H62.0543V48.0081ZM61.5543 27.8136V47.5081H62.5543V27.8136H61.5543ZM70.4883 27.3136H62.0543V28.3136H70.4883V27.3136ZM74.713 28.6452C73.5746 27.7459 72.1539 27.313 70.4881 27.3136L70.4884 28.3136C71.975 28.3131 73.1642 28.6961 74.0931 29.4299L74.713 28.6452ZM76.51 32.7119C76.4698 30.9623 75.8916 29.5764 74.713 28.6453L74.0931 29.4299C74.9818 30.132 75.475 31.2033 75.5103 32.7349L76.51 32.7119ZM75.2018 36.1358C76.0517 35.2037 76.4845 34.0594 76.5101 32.7331L75.5103 32.7138C75.4889 33.8171 75.1365 34.7232 74.4628 35.4621L75.2018 36.1358ZM71.9074 37.7174C73.2391 37.5956 74.3487 37.0715 75.2018 36.1358L74.4628 35.4621C73.7924 36.1975 72.9216 36.6205 71.8163 36.7216L71.9074 37.7174ZM72.3619 37.2747V37.2195H71.3619V37.2747H72.3619ZM75.5359 38.242C74.5351 37.3159 73.3075 36.8292 71.8809 36.775L71.8429 37.7743C73.0478 37.8201 74.0432 38.2231 74.8567 38.976L75.5359 38.242ZM77.1144 42.1443C77.0735 40.5175 76.5644 39.1939 75.5359 38.2421L74.8567 38.976C75.6425 39.7032 76.0789 40.745 76.1147 42.1695L77.1144 42.1443ZM75.1014 46.5539C76.4238 45.5443 77.0784 44.0537 77.1145 42.1665L76.1147 42.1474C76.0832 43.7954 75.5267 44.9712 74.4946 45.7591L75.1014 46.5539ZM70.1592 48.0081C72.152 48.0057 73.8145 47.5363 75.1014 46.5539L74.4946 45.7591C73.4268 46.5742 71.9964 47.0059 70.158 47.0081L70.1592 48.0081ZM70.4883 27.8653H62.6038V28.8653H70.4883V27.8653ZM74.3305 29.0311C73.2992 28.2366 72.0049 27.8604 70.4867 27.8653L70.4899 28.8653C71.838 28.8609 72.9017 29.1927 73.7202 29.8233L74.3305 29.0311ZM75.9607 32.7126C75.9263 31.1213 75.4068 29.8603 74.3305 29.0311L73.7202 29.8233C74.4937 30.4193 74.9311 31.3558 74.9609 32.7342L75.9607 32.7126ZM74.2507 36.3043C75.3572 35.4851 75.9126 34.2694 75.9605 32.7391L74.961 32.7078C74.9208 33.9933 74.4711 34.8969 73.6557 35.5005L74.2507 36.3043ZM70.4887 37.4713C71.9303 37.47 73.1929 37.0874 74.2507 36.3043L73.6557 35.5005C72.7916 36.1403 71.7442 36.4702 70.4879 36.4713L70.4887 37.4713ZM62.6038 37.4713H70.4883V36.4713H62.6038V37.4713ZM62.1038 28.3653V36.9713H63.1038V28.3653H62.1038ZM92.5145 33.3C92.377 31.0331 91.6438 29.3154 90.2183 28.2782L89.6299 29.0867C90.7285 29.8861 91.3894 31.267 91.5164 33.3605L92.5145 33.3ZM91.466 33.8302H92.0154V32.8302H91.466V33.8302ZM89.2672 29.5108C90.2678 30.2212 90.8672 31.4579 90.9667 33.3564L91.9653 33.3041C91.8564 31.226 91.183 29.6446 89.8461 28.6954L89.2672 29.5108ZM85.0994 28.3963C86.8287 28.3721 88.2053 28.7569 89.2672 29.5108L89.8461 28.6954C88.5706 27.7898 86.971 27.37 85.0855 27.3964L85.0994 28.3963ZM81.2042 29.2785C82.4027 28.6604 83.6924 28.3658 85.0815 28.3962L85.1034 27.3965C83.5518 27.3625 82.0965 27.6932 80.7458 28.3898L81.2042 29.2785ZM79.4381 32.4439C79.5146 30.8451 80.124 29.8357 81.2042 29.2785L80.7458 28.3898C79.2769 29.1475 78.5287 30.5287 78.4392 32.3961L79.4381 32.4439ZM81.2576 35.3807C80.6719 35.13 80.2429 34.7657 79.9482 34.2907C79.6505 33.811 79.4716 33.1887 79.4382 32.3989L78.4391 32.4411C78.4778 33.3569 78.6887 34.1575 79.0984 34.8179C79.5111 35.4829 80.1072 35.9761 80.8642 36.3L81.2576 35.3807ZM85.7886 36.7004C84.0692 36.3794 82.5603 35.9382 81.2576 35.3807L80.8642 36.3C82.2469 36.8918 83.8286 37.3517 85.6051 37.6834L85.7886 36.7004ZM90.6477 38.3025C89.3256 37.6212 87.7051 37.0904 85.7965 36.702L85.5971 37.6819C87.4442 38.0578 88.9715 38.5637 90.1896 39.1914L90.6477 38.3025ZM92.8999 42.6681C92.8462 40.5957 92.1393 39.0713 90.6477 38.3025L90.1896 39.1914C91.2379 39.7317 91.852 40.8299 91.9002 42.6939L92.8999 42.6681ZM90.4554 47.1525C92.0101 46.2062 92.8146 44.6922 92.8996 42.7023L91.9005 42.6597C91.8275 44.3694 91.1622 45.5517 89.9355 46.2983L90.4554 47.1525ZM85.4736 48.477C87.3137 48.4896 88.9791 48.051 90.4554 47.1525L89.9355 46.2983C88.6302 47.0927 87.1499 47.4885 85.4805 47.477L85.4736 48.477ZM79.636 46.729C81.1629 47.9282 83.1263 48.496 85.4811 48.477L85.473 47.477C83.2846 47.4947 81.5599 46.9684 80.2537 45.9426L79.636 46.729ZM77.3123 40.9719C77.3176 43.5291 78.0587 45.4902 79.636 46.729L80.2537 45.9426C78.9979 44.9563 78.3173 43.3408 78.3123 40.9698L77.3123 40.9719ZM78.3617 40.4708H77.8123V41.4708H78.3617V40.4708ZM80.6591 45.5712C79.5325 44.701 78.8959 43.2118 78.8617 40.9632L77.8618 40.9784C77.8986 43.395 78.5898 45.2364 80.0478 46.3626L80.6591 45.5712ZM85.471 46.9254C83.4261 46.9503 81.8386 46.4821 80.6591 45.5712L80.0478 46.3626C81.4531 47.448 83.2812 47.9521 85.4831 47.9253L85.471 46.9254ZM89.5638 45.8809C88.3663 46.5867 87.01 46.9379 85.4812 46.9254L85.4729 47.9253C87.1675 47.9392 88.7049 47.5479 90.0716 46.7424L89.5638 45.8809ZM91.3511 42.6317C91.284 44.172 90.6787 45.2238 89.5638 45.8809L90.0716 46.7424C91.5207 45.8882 92.2706 44.5012 92.3501 42.6752L91.3511 42.6317ZM90.4069 40.1164C90.9824 40.6348 91.3238 41.4521 91.3507 42.6645L92.3505 42.6423C92.3197 41.2568 91.9218 40.1351 91.0762 39.3734L90.4069 40.1164ZM87.9764 38.8455C88.9568 39.1093 89.7623 39.5358 90.4069 40.1164L91.0762 39.3734C90.2997 38.674 89.3483 38.179 88.2361 37.8798L87.9764 38.8455ZM84.8772 38.0945C85.905 38.3159 86.938 38.5662 87.9764 38.8455L88.2361 37.8798C87.1818 37.5963 86.1324 37.3419 85.0879 37.1169L84.8772 38.0945ZM80.271 36.6308C81.6437 37.3027 83.1861 37.7902 84.8939 38.0978L85.0712 37.1136C83.4411 36.82 81.989 36.3583 80.7107 35.7326L80.271 36.6308ZM77.8896 32.4403C77.9703 34.4265 78.7355 35.8792 80.271 36.6308L80.7106 35.7326C79.5951 35.1866 78.9592 34.1315 78.8888 32.3997L77.8896 32.4403ZM80.316 27.9749C78.7613 28.8259 77.9769 30.3474 77.8897 32.3988L78.8888 32.4412C78.9652 30.6424 79.6254 29.4929 80.7962 28.8521L80.316 27.9749ZM85.1025 26.8448C83.36 26.8098 81.7607 27.1842 80.316 27.9749L80.7962 28.8521C82.077 28.1511 83.5019 27.8129 85.0824 27.8446L85.1025 26.8448ZM90.2183 28.2782C88.8488 27.2816 87.1249 26.8172 85.0857 26.8447L85.0992 27.8446C86.9782 27.8193 88.4754 28.2467 89.6299 29.0868L90.2183 28.2782Z" fill="#000223"/>
<path opacity="0.5" d="M15.6414 63.2929C15.8141 57.2299 17.0767 50.0502 19.2002 43.0556C19.6042 41.7248 20.0659 40.254 20.2262 39.7871C20.3865 39.3202 20.4965 38.917 20.4707 38.8913C20.4213 38.8419 20.3545 38.9546 19.0294 41.3226C16.9028 45.1229 14.5891 48.4571 11.9071 51.5865C10.9536 52.699 9.17415 54.5391 9.05177 54.5391C8.89756 54.5391 8.93769 52.3443 9.12832 50.3522C9.54747 45.9721 10.3826 41.8697 11.7535 37.4568C12.5045 35.0391 12.4689 34.996 11.3551 36.9743C9.6965 39.9201 7.09578 43.4769 4.9125 45.7853C4.23259 46.5041 3.90128 46.7796 3.81538 46.6975C3.72853 46.6145 3.72541 46.0926 3.80478 44.9238C4.05116 41.2956 4.75582 37.6322 5.91536 33.9513C6.14173 33.2326 6.31071 32.596 6.29087 32.5365C6.27102 32.477 5.85766 33.0972 5.37228 33.9148C4.88691 34.7324 4.1224 35.9097 3.67338 36.5311C2.31607 38.4094 0.213409 40.8067 0.0587968 40.6522C-0.0611073 40.5324 0.00955693 39.0159 0.205573 37.5023C1.01829 31.2266 3.72576 24.7774 7.70508 19.6383C8.61819 18.4591 10.2896 16.6632 10.474 16.6632C10.6836 16.6632 10.3246 20.2435 9.91739 22.213C9.82631 22.6535 9.56673 23.6993 9.34054 24.5368C9.11435 25.3744 8.95524 26.0856 8.98698 26.1173C9.01871 26.1491 9.39308 25.541 9.81891 24.7661C11.8762 21.0224 13.8564 18.2262 16.5407 15.2739C17.1621 14.5905 17.7157 14.0313 17.7709 14.0313C17.9817 14.0313 17.9967 14.2903 17.8816 15.9379C17.6633 19.0617 17.0054 22.7505 16.1583 25.6004C15.9683 26.2397 15.8282 26.8426 15.847 26.9402C15.8658 27.0378 16.2635 26.4003 16.7308 25.5235C19.4656 20.3925 22.6329 15.9359 26.3164 12.0359C27.0679 11.2401 27.4266 10.9348 27.5109 11.019C27.5952 11.1032 27.593 11.7712 27.5034 13.2433C27.2112 18.0483 26.4074 22.4709 24.91 27.5136C24.6236 28.4779 24.4141 29.2917 24.4445 29.322C24.4749 29.3523 24.9665 28.4812 25.537 27.3861C29.5707 19.644 33.7146 13.7106 39.1394 7.90992C40.052 6.93412 40.88 6.13574 40.9794 6.13574C41.1398 6.13574 41.1514 6.33925 41.0823 7.93799C40.7511 15.5936 39.2254 23.4849 36.5602 31.3265C32.2881 43.8959 25.1493 55.8973 17.1032 64.0367L15.5762 65.5814L15.6414 63.2929Z" fill="#000223"/>
</g>
</svg>
