<svg width="103" height="47" viewBox="0 0 103 47" fill="none" xmlns="http://www.w3.org/2000/svg">
<g opacity="0.5">
<path opacity="0.5" d="M0.335938 15.3674C13.5663 21.4778 20.1815 24.5329 20.1815 24.5329C20.1815 24.5329 41.8719 14.5517 60.923 9.00902C73.6237 5.31392 87.6494 2.31092 103 0V2.67878C87.3874 4.84839 73.6837 7.72699 61.8889 11.3146C50.094 14.9022 36.1916 20.3021 20.1815 27.5143L0.335938 18.3743V15.3674Z" fill="#000223"/>
<path opacity="0.5" d="M20.4042 23.3296C24.0051 21.588 26.7696 20.3026 28.6976 19.4736C30.6257 18.6446 33.5306 17.4921 37.4125 16.0163C34.0107 9.25088 28.7168 5.86816 21.5306 5.86816C14.3445 5.86816 8.34448 9.05713 3.53052 15.435L20.4042 23.3296ZM40.0057 23.9772C40.0057 28.2615 40.0057 32.8036 40.0057 37.6035H47.367V27.7995C47.7412 27.0811 48.4998 26.7219 49.6429 26.7219C50.7859 26.7219 51.3284 27.0811 51.2702 27.7995V37.6035H58.7783V27.7995C59.0676 27.0811 59.7213 26.7219 60.7394 26.7219C61.7575 26.7219 62.3315 27.0811 62.4613 27.7995V37.6035H70.1443V24.9846C69.1903 22.5133 67.2033 21.2776 64.1832 21.2776C61.1631 21.2776 59.1594 21.9546 58.1721 23.3084C57.1658 21.9546 55.4927 21.2776 53.1527 21.2776C50.8128 21.2776 48.8843 21.9546 47.367 23.3084V21.8654H44.3925C41.7446 22.2809 40.2823 22.9848 40.0057 23.9772ZM71.7181 18.7926V37.802H79.148V16.5889C79.148 15.6795 77.9097 15.6795 75.433 16.5889C72.9564 17.4983 71.7181 18.2329 71.7181 18.7926ZM103 37.245V38.1735H95.988C96.1673 36.2665 95.9616 35.6896 95.3709 36.4427C94.7803 37.1957 93.7068 37.7727 92.1504 38.1735H85.0063C81.8417 37.0167 80.2594 34.9924 80.2594 32.1007C80.2594 27.7631 88.9596 27.584 92.1504 27.584C94.2776 27.584 95.3511 27.0678 95.3709 26.0353C94.7132 25.1874 93.6397 24.7635 92.1504 24.7635C90.661 24.7635 89.5974 25.3871 88.9596 26.6343H81.3008C82.3512 22.6601 85.9677 20.673 92.1504 20.673C98.3331 20.673 101.95 22.2752 103 25.4796V37.245ZM95.6568 30.7639C91.7527 30.5925 89.5174 30.826 88.9509 31.4644C88.1012 32.4219 88.1012 33.9069 90.2752 33.9069C93.4222 33.9069 95.2161 32.8592 95.6568 30.7639Z" fill="#000223"/>
<path opacity="0.5" fill-rule="evenodd" clip-rule="evenodd" d="M0 46.8968V42.4486H0.882541L1.93131 45.5982C2.02803 45.8915 2.09855 46.1109 2.14288 46.2566C2.19326 46.0948 2.27184 45.8571 2.37863 45.5435L3.43949 42.4486H4.22834V46.8968H3.66315V43.1738L2.37561 46.8968H1.84669L0.565189 43.1101V46.8968H0ZM5.54015 46.8968V42.4486H8.74389V42.9736H6.12649V44.3359H8.57766V44.8578H6.12649V46.3719H8.84666V46.8968H5.54015ZM9.52376 46.8968L11.2254 42.4486H11.8571L13.6705 46.8968H13.0025L12.4857 45.5496H10.633L10.1464 46.8968H9.52376ZM10.8022 45.0702H12.3044L11.8419 43.8383C11.7009 43.4641 11.5961 43.1566 11.5276 42.9159C11.4712 43.2011 11.3916 43.4843 11.2888 43.7655L10.8022 45.0702ZM15.1606 46.8968V42.9736H13.7008V42.4486H17.2128V42.9736H15.747V46.8968H15.1606ZM22.5929 46.3719C22.4136 46.5721 22.2181 46.7223 22.0065 46.8225C21.795 46.9226 21.5663 46.9727 21.3205 46.9727C20.8671 46.9727 20.5074 46.8189 20.2415 46.5115C20.0259 46.2606 19.9181 45.9805 19.9181 45.671C19.9181 45.3959 20.0062 45.1476 20.1825 44.9261C20.3588 44.7046 20.6223 44.5099 20.9729 44.342C20.7734 44.1114 20.6404 43.9243 20.5739 43.7807C20.5074 43.637 20.4742 43.4985 20.4742 43.365C20.4742 43.098 20.5785 42.8658 20.787 42.6686C20.9955 42.4714 21.258 42.3728 21.5743 42.3728C21.8766 42.3728 22.1239 42.4658 22.3163 42.6519C22.5088 42.838 22.605 43.0616 22.605 43.3225C22.605 43.7453 22.3259 44.1063 21.7678 44.4057L22.5627 45.4222C22.6533 45.2442 22.7239 45.0378 22.7742 44.8032L23.3394 44.9246C23.2427 45.3129 23.1117 45.6325 22.9465 45.8834C23.15 46.1544 23.3807 46.382 23.6386 46.5661L23.2729 47C23.0533 46.8584 22.8266 46.649 22.5929 46.3719ZM21.4867 44.0537C21.7224 43.9142 21.8751 43.7918 21.9446 43.6866C22.0141 43.5814 22.0489 43.4651 22.0489 43.3377C22.0489 43.186 22.001 43.0621 21.9053 42.966C21.8096 42.8699 21.6902 42.8218 21.5471 42.8218C21.4 42.8218 21.2776 42.8694 21.1799 42.9645C21.0822 43.0595 21.0333 43.1758 21.0333 43.3134C21.0333 43.3822 21.051 43.4545 21.0862 43.5303C21.1215 43.6062 21.1744 43.6866 21.2449 43.7716L21.4867 44.0537ZM22.2514 45.941L21.254 44.7C20.9598 44.876 20.7613 45.0394 20.6585 45.1901C20.5558 45.3408 20.5044 45.4899 20.5044 45.6376C20.5044 45.8176 20.5759 46.0047 20.719 46.1989C20.8621 46.3931 21.0646 46.4902 21.3265 46.4902C21.4897 46.4902 21.6585 46.4391 21.8328 46.337C22.007 46.2348 22.1466 46.1028 22.2514 45.941ZM26.6612 46.8968V42.4486H27.2476V46.3719H29.4297V46.8968H26.6612ZM30.5814 46.8968V42.4486H31.1677V46.8968H30.5814ZM33.8215 46.8968L32.1047 42.4486H32.7394L33.891 45.6801C33.9837 45.939 34.0612 46.1817 34.1237 46.4083C34.1922 46.1656 34.2718 45.9228 34.3625 45.6801L35.5593 42.4486H36.1578L34.4229 46.8968H33.8215ZM37.0495 46.8968V42.4486H40.2532V42.9736H37.6358V44.3359H40.087V44.8578H37.6358V46.3719H40.356V46.8968H37.0495ZM41.3202 45.4677L41.8733 45.4191C41.8995 45.6416 41.9604 45.8242 42.0562 45.9668C42.1519 46.1094 42.3005 46.2247 42.502 46.3127C42.7035 46.4007 42.9301 46.4447 43.182 46.4447C43.4057 46.4447 43.6031 46.4113 43.7744 46.3446C43.9457 46.2778 44.0731 46.1863 44.1567 46.07C44.2404 45.9537 44.2822 45.8267 44.2822 45.6892C44.2822 45.5496 44.2419 45.4277 44.1613 45.3236C44.0807 45.2194 43.9477 45.1319 43.7623 45.0611C43.6434 45.0146 43.3805 44.9423 42.9735 44.8442C42.5664 44.746 42.2813 44.6535 42.1181 44.5665C41.9065 44.4553 41.7489 44.3172 41.6451 44.1524C41.5413 43.9875 41.4895 43.8029 41.4895 43.5986C41.4895 43.3741 41.5529 43.1642 41.6799 42.969C41.8068 42.7738 41.9922 42.6256 42.236 42.5245C42.4798 42.4234 42.7508 42.3728 43.049 42.3728C43.3775 42.3728 43.6671 42.4259 43.918 42.5321C44.1688 42.6383 44.3617 42.7945 44.4967 43.0009C44.6318 43.2072 44.7043 43.4408 44.7144 43.7018L44.1522 43.7443C44.122 43.4631 44.0197 43.2507 43.8454 43.1071C43.6711 42.9634 43.4137 42.8916 43.0732 42.8916C42.7186 42.8916 42.4602 42.9569 42.298 43.0873C42.1357 43.2178 42.0546 43.3751 42.0546 43.5592C42.0546 43.719 42.1121 43.8504 42.2269 43.9536C42.3398 44.0568 42.6344 44.1625 43.111 44.2707C43.5875 44.3789 43.9144 44.4735 44.0917 44.5544C44.3497 44.6737 44.5401 44.8249 44.663 45.008C44.7859 45.1911 44.8473 45.4019 44.8473 45.6406C44.8473 45.8773 44.7799 46.1003 44.6448 46.3097C44.5098 46.519 44.3159 46.6819 44.063 46.7982C43.8102 46.9145 43.5256 46.9727 43.2092 46.9727C42.8082 46.9727 42.4722 46.914 42.2012 46.7967C41.9302 46.6793 41.7177 46.5029 41.5635 46.2672C41.4094 46.0315 41.3283 45.765 41.3202 45.4677ZM47.1293 46.8968V42.9736H45.6695V42.4486H49.1816V42.9736H47.7157V46.8968H47.1293ZM49.8466 44.7304C49.8466 43.992 50.044 43.414 50.439 42.9963C50.8339 42.5786 51.3437 42.3698 51.9683 42.3698C52.3773 42.3698 52.7461 42.4679 53.0745 42.6641C53.4029 42.8603 53.6533 43.1339 53.8256 43.4848C53.9978 43.8358 54.084 44.2338 54.084 44.6788C54.084 45.1299 53.9933 45.5334 53.812 45.8894C53.6306 46.2455 53.3737 46.515 53.0413 46.6981C52.7088 46.8811 52.3501 46.9727 51.9653 46.9727C51.5482 46.9727 51.1754 46.8715 50.847 46.6692C50.5186 46.467 50.2697 46.1908 50.1005 45.8409C49.9312 45.4909 49.8466 45.1208 49.8466 44.7304ZM50.4511 44.7395C50.4511 45.2755 50.5946 45.6978 50.8817 46.0063C51.1689 46.3147 51.529 46.469 51.9623 46.469C52.4035 46.469 52.7667 46.3132 53.0518 46.0017C53.3369 45.6902 53.4795 45.2482 53.4795 44.6758C53.4795 44.3137 53.4185 43.9976 53.2966 43.7276C53.1747 43.4575 52.9964 43.2482 52.7617 43.0995C52.5269 42.9508 52.2635 42.8765 51.9713 42.8765C51.5562 42.8765 51.1991 43.0196 50.8999 43.3058C50.6007 43.592 50.4511 44.0699 50.4511 44.7395ZM58.3547 45.3372L58.9411 45.4859C58.8181 45.9693 58.597 46.338 58.2776 46.5919C57.9583 46.8457 57.5679 46.9727 57.1065 46.9727C56.6289 46.9727 56.2406 46.8751 55.9413 46.6799C55.6421 46.4847 55.4144 46.202 55.2583 45.8318C55.1021 45.4616 55.024 45.0641 55.024 44.6393C55.024 44.1761 55.1122 43.7721 55.2885 43.4272C55.4648 43.0823 55.7157 42.8203 56.0411 42.6413C56.3665 42.4623 56.7246 42.3728 57.1155 42.3728C57.5588 42.3728 57.9316 42.4861 58.2338 42.7126C58.5361 42.9392 58.7466 43.2578 58.8655 43.6684L58.2882 43.8049C58.1855 43.4813 58.0364 43.2456 57.8409 43.098C57.6455 42.9503 57.3996 42.8765 57.1034 42.8765C56.7629 42.8765 56.4783 42.9584 56.2496 43.1222C56.0209 43.2861 55.8602 43.5061 55.7675 43.7822C55.6749 44.0583 55.6285 44.343 55.6285 44.6363C55.6285 45.0146 55.6834 45.3448 55.7932 45.627C55.903 45.9092 56.0738 46.12 56.3055 46.2596C56.5373 46.3992 56.7881 46.469 57.0581 46.469C57.3865 46.469 57.6646 46.3739 57.8923 46.1838C58.12 45.9936 58.2741 45.7114 58.3547 45.3372ZM59.9929 46.8968V42.4486H60.5793V44.6545L62.7796 42.4486H63.5745L61.7157 44.251L63.6561 46.8968H62.8824L61.3047 44.6454L60.5793 45.3554V46.8968H59.9929ZM65.7448 46.8968L67.4464 42.4486H68.078L69.8915 46.8968H69.2235L68.7067 45.5496H66.854L66.3674 46.8968H65.7448ZM67.0232 45.0702H68.5254L68.0629 43.8383C67.9219 43.4641 67.8171 43.1566 67.7486 42.9159C67.6922 43.2011 67.6126 43.4843 67.5098 43.7655L67.0232 45.0702ZM73.6212 42.4486H74.2076V45.0186C74.2076 45.4657 74.1572 45.8207 74.0564 46.0836C73.9557 46.3466 73.7738 46.5605 73.5109 46.7254C73.2479 46.8902 72.9029 46.9727 72.4757 46.9727C72.0606 46.9727 71.7211 46.9008 71.4572 46.7572C71.1932 46.6136 71.0048 46.4058 70.892 46.1337C70.7791 45.8616 70.7227 45.4899 70.7227 45.0186V42.4486H71.3091V45.0156C71.3091 45.4019 71.3448 45.6867 71.4164 45.8697C71.4879 46.0528 71.6108 46.1939 71.7851 46.293C71.9594 46.3921 72.1725 46.4417 72.4243 46.4417C72.8555 46.4417 73.1628 46.3436 73.3462 46.1473C73.5295 45.9511 73.6212 45.5739 73.6212 45.0156V42.4486ZM75.338 45.4677L75.8911 45.4191C75.9173 45.6416 75.9783 45.8242 76.074 45.9668C76.1697 46.1094 76.3183 46.2247 76.5198 46.3127C76.7213 46.4007 76.948 46.4447 77.1998 46.4447C77.4235 46.4447 77.6209 46.4113 77.7922 46.3446C77.9635 46.2778 78.0909 46.1863 78.1746 46.07C78.2582 45.9537 78.3 45.8267 78.3 45.6892C78.3 45.5496 78.2597 45.4277 78.1791 45.3236C78.0985 45.2194 77.9655 45.1319 77.7801 45.0611C77.6612 45.0146 77.3983 44.9423 76.9913 44.8442C76.5843 44.746 76.2991 44.6535 76.1359 44.5665C75.9244 44.4553 75.7667 44.3172 75.6629 44.1524C75.5592 43.9875 75.5073 43.8029 75.5073 43.5986C75.5073 43.3741 75.5708 43.1642 75.6977 42.969C75.8246 42.7738 76.01 42.6256 76.2538 42.5245C76.4976 42.4234 76.7686 42.3728 77.0668 42.3728C77.3953 42.3728 77.6849 42.4259 77.9358 42.5321C78.1866 42.6383 78.3796 42.7945 78.5146 43.0009C78.6496 43.2072 78.7221 43.4408 78.7322 43.7018L78.17 43.7443C78.1398 43.4631 78.0375 43.2507 77.8632 43.1071C77.6889 42.9634 77.4315 42.8916 77.091 42.8916C76.7364 42.8916 76.478 42.9569 76.3158 43.0873C76.1536 43.2178 76.0725 43.3751 76.0725 43.5592C76.0725 43.719 76.1299 43.8504 76.2447 43.9536C76.3576 44.0568 76.6523 44.1625 77.1288 44.2707C77.6053 44.3789 77.9323 44.4735 78.1096 44.5544C78.3675 44.6737 78.5579 44.8249 78.6808 45.008C78.8037 45.1911 78.8652 45.4019 78.8652 45.6406C78.8652 45.8773 78.7977 46.1003 78.6627 46.3097C78.5277 46.519 78.3337 46.6819 78.0809 46.7982C77.828 46.9145 77.5434 46.9727 77.227 46.9727C76.8261 46.9727 76.4901 46.914 76.2191 46.7967C75.948 46.6793 75.7355 46.5029 75.5813 46.2672C75.4272 46.0315 75.3461 45.765 75.338 45.4677ZM81.1472 46.8968V42.9736H79.6873V42.4486H83.1994V42.9736H81.7335V46.8968H81.1472ZM86.4621 44.8751C86.4606 44.8744 86.4591 44.8737 86.4576 44.873L86.4621 44.8751ZM86.4621 44.8751C86.6151 44.9493 86.7314 45.0224 86.8112 45.0945C86.9825 45.2523 87.1447 45.4495 87.2978 45.6861L88.0686 46.8968H87.3311L86.7447 45.9714C86.5735 45.7044 86.4324 45.5001 86.3216 45.3585C86.2108 45.2169 86.1115 45.1177 86.0239 45.0611C85.9363 45.0045 85.8471 44.965 85.7564 44.9428C85.6899 44.9286 85.5811 44.9215 85.43 44.9215H84.75V46.8968H84.1636V42.4486H86.1282C86.5231 42.4486 86.8233 42.4886 87.0289 42.5685C87.2344 42.6484 87.3986 42.7895 87.5215 42.9918C87.6444 43.194 87.7059 43.4176 87.7059 43.6623C87.7059 43.9779 87.6041 44.2439 87.4006 44.4603C87.1971 44.6768 86.8828 44.8143 86.4576 44.873L86.4621 44.8751ZM84.75 44.4118H86.0103C86.2783 44.4118 86.4878 44.384 86.639 44.3283C86.7901 44.2727 86.9049 44.1837 86.9835 44.0613C87.0621 43.9389 87.1014 43.8059 87.1014 43.6623C87.1014 43.452 87.0253 43.279 86.8732 43.1435C86.7211 43.0079 86.4808 42.9402 86.1524 42.9402H84.75V44.4118ZM88.4918 46.8968L90.1934 42.4486H90.8251L92.6385 46.8968H91.9706L91.4537 45.5496H89.601L89.1144 46.8968H88.4918ZM89.7703 45.0702H91.2724L90.81 43.8383C90.6689 43.4641 90.5641 43.1566 90.4956 42.9159C90.4392 43.2011 90.3596 43.4843 90.2569 43.7655L89.7703 45.0702ZM93.4365 46.8968V42.4486H94.0229V46.3719H96.205V46.8968H93.4365ZM97.3567 46.8968V42.4486H97.943V46.8968H97.3567ZM98.8438 46.8968L100.545 42.4486H101.177L102.991 46.8968H102.323L101.806 45.5496H99.953L99.4664 46.8968H98.8438ZM100.122 45.0702H101.624L101.162 43.8383C101.021 43.4641 100.916 43.1566 100.848 42.9159C100.791 43.2011 100.712 43.4843 100.609 43.7655L100.122 45.0702Z" fill="#000223"/>
</g>
</svg>
