<svg width="53" height="53" viewBox="0 0 53 53" fill="none" xmlns="http://www.w3.org/2000/svg">
<path d="M53 2.07031V10.3516C53 11.4951 52.0732 12.4219 50.9297 12.4219H48.8594V29.709C48.8594 30.8525 47.9326 31.7793 46.7891 31.7793C45.6455 31.7793 44.7188 30.8525 44.7188 29.709V12.4219H42.6484C41.5049 12.4219 40.5781 11.4951 40.5781 10.3516V8.28125H12.4219V10.3516C12.4219 11.4951 11.4951 12.4219 10.3516 12.4219H8.28125V40.5781H10.3516C11.4951 40.5781 12.4219 41.5049 12.4219 42.6484V44.7188H29.3984C30.542 44.7188 31.4688 45.6455 31.4688 46.7891C31.4688 47.9326 30.542 48.8594 29.3984 48.8594H12.4219V50.9297C12.4219 52.0732 11.4951 53 10.3516 53H2.07031C0.926788 53 0 52.0732 0 50.9297V42.6484C0 41.5049 0.926788 40.5781 2.07031 40.5781H4.14062V12.4219H2.07031C0.926788 12.4219 0 11.4951 0 10.3516V2.07031C0 0.926788 0.926788 0 2.07031 0H10.3516C11.4951 0 12.4219 0.926788 12.4219 2.07031V4.14062H40.5781V2.07031C40.5781 0.926788 41.5049 0 42.6484 0H50.9297C52.0732 0 53 0.926788 53 2.07031ZM8.28125 44.7188H4.14062V48.8594H8.28125V44.7188ZM8.28125 4.14062H4.14062V8.28125H8.28125V4.14062ZM48.8594 4.14062H44.7188V8.28125H48.8594V4.14062ZM52.8965 36.8516V47.8242C52.8965 50.6782 50.5747 53 47.7207 53H36.541C35.7008 53 34.9442 52.4925 34.6256 51.715C34.3065 50.9378 34.4897 50.045 35.0878 49.455L49.3729 35.3769C49.9673 34.7914 50.8557 34.6195 51.6256 34.9418C52.3955 35.2641 52.8965 36.017 52.8965 36.8516ZM48.7559 41.7985L41.591 48.8594H47.7207C48.2917 48.8594 48.7559 48.3952 48.7559 47.8242V41.7985Z" fill="#414141"/>
<path d="M29.9314 29.5825C29.9314 26.2825 29.2989 25.045 26.9614 24.0825L24.6514 23.1475C23.2764 22.5975 23.0289 22.1025 23.0289 20.5075C23.0289 19.655 23.1939 18.995 23.5514 18.5825C23.8539 18.2525 24.2389 18.0325 24.8714 18.0325C25.5314 18.0325 25.9714 18.2525 26.2464 18.61C26.6589 19.1325 26.7139 19.82 26.7139 20.7H29.7939C29.7939 18.83 29.4364 17.4275 28.4189 16.4375C27.6214 15.6675 26.4664 15.255 24.8989 15.255C23.4964 15.255 22.3964 15.695 21.5439 16.4375C20.4714 17.4 19.9489 18.83 19.9489 20.59C19.9489 23.615 20.6914 24.6875 22.6714 25.5125L25.0089 26.475C26.5214 27.08 26.8514 27.6025 26.8514 29.6925C26.8514 30.7375 26.7414 31.3975 26.3289 31.865C26.0264 32.2225 25.5589 32.415 24.8439 32.415C24.1564 32.415 23.6889 32.195 23.4139 31.8925C22.9739 31.3975 22.8639 30.7375 22.8639 29.6925H19.7839C19.7839 31.755 20.1139 32.965 21.0489 33.9C21.8739 34.725 23.1389 35.1925 24.8439 35.1925C26.5764 35.1925 27.8689 34.67 28.6664 33.9C29.6564 32.9375 29.9314 31.59 29.9314 29.5825ZM31.8211 34.4495C31.3377 33.9571 31.096 33.3708 31.096 32.6904C31.096 32.0101 31.3377 31.4237 31.8211 30.9314C32.3134 30.439 32.9042 30.1929 33.5935 30.1929C34.2918 30.1929 34.8871 30.439 35.3794 30.9314C35.8807 31.4148 36.1314 32.0011 36.1314 32.6904C36.1314 33.3797 35.8807 33.9705 35.3794 34.4629C34.8871 34.9463 34.2918 35.188 33.5935 35.188C32.9042 35.188 32.3134 34.9418 31.8211 34.4495Z" fill="#ED1C24"/>
</svg>
