<svg width="90" height="93" viewBox="0 0 90 93" fill="none" xmlns="http://www.w3.org/2000/svg">
<circle cx="45" cy="48" r="44.5" stroke="#414141"/>
<path d="M78 47.5C78 66.0015 63.0015 81 44.5 81C25.9985 81 11 66.0015 11 47.5C11 28.9985 25.9985 14 44.5 14C63.0015 14 78 28.9985 78 47.5Z" stroke="#5F6B7A" stroke-linecap="round" stroke-linejoin="round" stroke-dasharray="1 4"/>
<path d="M1.67617 44.4184C3.55148 20.5337 24.4341 2.6915 48.3189 4.56681" stroke="#2D9CDB" stroke-width="2" stroke-linecap="round" stroke-linejoin="bevel"/>
<g clip-path="url(#clip0)">
<path d="M61.5507 24H59.272C58.2703 24 58.2703 25.553 59.272 25.553H61.5507C63.9039 25.553 65.8185 27.4606 65.8185 29.8054V47.7754C65.8185 50.1203 63.904 52.0279 61.5507 52.0279H58.9662C58.7957 52.0279 58.63 52.084 58.4945 52.1877L53.7521 55.8152V52.8044C53.7521 52.3756 53.4046 52.0279 52.9757 52.0279H43.5254C42.7515 52.0279 42.0077 51.8236 41.3518 51.4353V42.7188C41.3518 41.0862 40.5202 39.6437 39.2574 38.7903V29.8054C39.2574 27.4606 41.172 25.553 43.5254 25.553H54.406C55.4076 25.553 55.4076 24 54.406 24H43.5254C40.3157 24 37.7045 26.6043 37.7045 29.8054V38.1078C37.3489 38.0229 36.9785 37.9766 36.5973 37.9766H22.383C19.7615 37.9766 17.6286 40.104 17.6286 42.7188V44.3955C17.6286 45.3971 19.1816 45.3971 19.1816 44.3955V42.7188C19.1816 40.9603 20.6177 39.5296 22.383 39.5296H36.5974C38.3627 39.5296 39.7989 40.9603 39.7989 42.7188V51.7444C39.7896 51.813 39.79 51.882 39.7989 51.9501V56.8897C39.7989 56.9873 39.793 57.0845 39.7842 57.1812H38.1829C36.4184 57.1812 34.9475 58.4548 34.6424 60.1286C34.5718 60.1552 34.504 60.1923 34.4412 60.2408L30.9683 62.9223V60.8554C30.9683 60.4266 30.6207 60.079 30.1918 60.079H22.383C20.6177 60.079 19.1816 58.6483 19.1816 56.8897V49.0544C19.1816 48.0529 17.6286 48.0529 17.6286 49.0544V56.8898C17.6286 59.5047 19.7615 61.632 22.383 61.632H29.4154V64.5029C29.4154 65.1258 30.1717 65.4994 30.6665 65.1176L34.5835 62.0932V70.8285C34.5835 72.8086 36.1983 74.4193 38.183 74.4193H42.948V76.2312C42.948 76.8538 43.7043 77.2279 44.1989 76.8459L47.3417 74.4193H48.2702C50.2549 74.4193 51.8696 72.8085 51.8696 70.8285V69.4499C51.8696 68.4484 50.3167 68.4484 50.3167 69.4499V70.8285C50.3167 71.9523 49.3987 72.8663 48.2702 72.8663H47.0768C46.905 72.8663 46.7381 72.9233 46.6023 73.0282L44.5008 74.6506V73.6427C44.5008 73.2139 44.1533 72.8662 43.7244 72.8662H38.1829C37.0545 72.8662 36.1364 71.9521 36.1364 70.8284V60.7721C36.1364 59.6484 37.0544 58.7343 38.1829 58.7343H48.2702C49.3986 58.7343 50.3167 59.6485 50.3167 60.7721V64.584C50.3167 65.5856 51.8696 65.5856 51.8696 64.584V60.7722C51.8696 58.7922 50.2549 57.1815 48.2702 57.1815H41.343C41.3489 57.0844 41.3519 53.1626 41.3519 53.1626C42.0365 53.4379 42.7705 53.581 43.5255 53.581H52.1993V57.3868C52.1993 58.008 52.9524 58.3821 53.4475 58.0035L59.2293 53.581H61.5508C64.7603 53.581 67.3716 50.9767 67.3716 47.7755V29.8054C67.3715 26.6043 64.7602 24 61.5507 24V24Z" fill="white"/>
<path d="M54.4782 29.7368C53.4923 29.4852 52.4876 30.2641 52.4876 31.2829C52.4876 32.3959 52.082 33.4686 51.346 34.3028L49.2066 36.7236C49.0681 36.5111 48.8287 36.3704 48.5561 36.3704H44.3797C43.9508 36.3704 43.6032 36.718 43.6032 37.1468V46.5438C43.6032 46.9726 43.9508 47.3203 44.3797 47.3203H48.5561C48.8699 47.3203 49.1395 47.1338 49.262 46.8661C50.1075 47.3827 51.0873 47.662 52.0842 47.662H59.4651C60.593 47.662 61.5234 46.6834 61.4705 45.5584C61.447 45.0602 61.4727 38.3708 61.4727 38.2222C61.4727 37.1153 60.5721 36.2145 59.4674 36.2145L55.6292 36.2031L55.7882 35.8267C56.5144 34.1068 56.3948 32.1124 55.4687 30.4914C55.2525 30.1127 54.9006 29.8448 54.4782 29.7368C54.9006 29.8448 54.0556 29.629 54.4782 29.7368C54.9006 29.8448 53.4924 29.4852 54.4782 29.7368ZM47.7797 45.7673H45.1562V37.9233H47.7797V45.7673ZM59.4651 37.7674C59.7159 37.7674 59.9199 37.9714 59.9199 38.2221C59.9199 38.3698 59.9183 38.7708 59.9162 39.3145C59.9047 42.316 59.8971 45.1588 59.9192 45.6313C59.9273 45.8018 59.8444 45.9155 59.7943 45.9681C59.7075 46.059 59.5906 46.109 59.4651 46.109H52.0842C51.2044 46.109 50.3434 45.8041 49.6595 45.2505L49.3326 44.9859V38.9261L52.5101 35.3306C53.497 34.2121 54.0406 32.7745 54.0406 31.2828C54.0406 31.2389 54.1005 31.2275 54.1204 31.2616C54.808 32.465 54.8967 33.9456 54.3576 35.2224L53.7448 36.6738C53.6436 36.9133 53.6691 37.1873 53.8123 37.4041C53.9557 37.6209 54.1979 37.7516 54.4577 37.7524L59.4651 37.7674Z" fill="#2D9CDB"/>
<path d="M24.2774 50.9695C23.8484 50.9695 23.5009 51.3171 23.5009 51.746C23.5009 52.1748 23.8484 52.5224 24.2774 52.5224H26.5662L26.1386 55.1085C26.0687 55.5316 26.355 55.9313 26.7781 56.0013C26.821 56.0084 26.8636 56.0118 26.9056 56.0118C27.2787 56.0118 27.6079 55.7421 27.6708 55.3619L28.1402 52.5225H30.0134L29.5858 55.1086C29.5158 55.5317 29.8022 55.9314 30.2252 56.0014C30.2682 56.0085 30.3107 56.0119 30.3528 56.0119C30.7259 56.0119 31.055 55.7422 31.118 55.362L31.5874 52.5226H34.7029C35.1318 52.5226 35.4794 52.175 35.4794 51.7462C35.4794 51.3173 35.1318 50.9697 34.7029 50.9697H31.8441L32.1573 49.0755H34.7029C35.1318 49.0755 35.4794 48.7278 35.4794 48.299C35.4794 47.8702 35.1318 47.5225 34.7029 47.5225H32.4141L32.8416 44.9364C32.9116 44.5134 32.6253 44.1137 32.2022 44.0437C31.7787 43.9735 31.3795 44.2601 31.3095 44.6831L30.8401 47.5224H28.9669L29.3945 44.9363C29.4645 44.5133 29.1781 44.1136 28.7551 44.0436C28.331 43.9734 27.9324 44.26 27.8623 44.683L27.3929 47.5223H24.2774C23.8484 47.5223 23.5009 47.87 23.5009 48.2988C23.5009 48.7276 23.8484 49.0753 24.2774 49.0753H27.1362L26.823 50.9695H24.2774ZM28.7102 49.0753H30.5834L30.2702 50.9695H28.3971L28.7102 49.0753Z" fill="#5F6B7A"/>
<path d="M43.2172 62.7407C42.5902 62.2245 41.756 62.0208 40.9193 62.2243C39.847 62.4847 38.765 63.487 38.765 65.1393C38.765 66.1677 39.1403 67.0603 39.9124 67.8683C40.543 68.5283 41.453 69.1559 42.8629 69.9034C42.9767 69.9637 43.1016 69.9938 43.2266 69.9938C43.3515 69.9938 43.4765 69.9637 43.5903 69.9034C46.05 68.5994 47.688 67.2902 47.688 65.1393C47.688 63.478 46.5676 62.4859 45.4571 62.2396C44.6229 62.0545 43.8141 62.251 43.2172 62.7407ZM46.135 65.1393C46.135 66.2995 45.3654 67.1574 43.2265 68.3349C41.0875 67.1573 40.3179 66.2994 40.3179 65.1393C40.3179 64.276 40.8177 63.847 41.2856 63.7333C41.3718 63.7124 41.4642 63.7006 41.5591 63.7006C41.911 63.7006 42.2979 63.8632 42.5364 64.3256C42.6724 64.5888 42.9472 64.752 43.2419 64.7459C43.5379 64.74 43.8049 64.5662 43.9301 64.2979C44.1813 63.7593 44.7098 63.6646 45.1206 63.7558C45.6111 63.8644 46.135 64.2851 46.135 65.1393Z" fill="#ED1C24"/>
</g>
<defs>
<clipPath id="clip0">
<rect x="16" y="24" width="53" height="53" fill="white"/>
</clipPath>
</defs>
</svg>
