<svg width="53" height="53" viewBox="0 0 53 53" fill="none" xmlns="http://www.w3.org/2000/svg">
<path d="M39.8185 36.6959L49.2767 46.152L46.152 49.2768L36.6959 39.8185C33.1774 42.639 28.8011 44.1731 24.2917 44.1667C13.3207 44.1667 4.41667 35.2627 4.41667 24.2917C4.41667 13.3207 13.3207 4.41667 24.2917 4.41667C35.2627 4.41667 44.1667 13.3207 44.1667 24.2917C44.1731 28.8011 42.639 33.1774 39.8185 36.6959ZM35.3885 35.0573C38.1912 32.1752 39.7563 28.3118 39.75 24.2917C39.75 15.7498 32.8313 8.83334 24.2917 8.83334C15.7498 8.83334 8.83333 15.7498 8.83333 24.2917C8.83333 32.8313 15.7498 39.75 24.2917 39.75C28.3118 39.7563 32.1752 38.1912 35.0573 35.3885L35.3885 35.0573ZM26.8931 15.847C26.2419 16.1412 25.6718 16.5889 25.2317 17.1518C24.7917 17.7147 24.4947 18.376 24.3664 19.0789C24.2381 19.7818 24.2822 20.5054 24.495 21.1875C24.7078 21.8696 25.083 22.4899 25.5882 22.9951C26.0935 23.5004 26.7137 23.8755 27.3958 24.0883C28.0779 24.3011 28.8015 24.3453 29.5044 24.2169C30.2073 24.0886 30.8686 23.7917 31.4315 23.3516C31.9944 22.9115 32.4422 22.3414 32.7363 21.6903C33.3167 23.5753 33.2494 25.6004 32.5453 27.4429C31.8411 29.2853 30.5406 30.839 28.8509 31.8565C27.1612 32.874 25.1796 33.2968 23.2218 33.0573C21.264 32.8179 19.4426 31.9301 18.0479 30.5354C16.6532 29.1407 15.7654 27.3194 15.526 25.3616C15.2866 23.4038 15.7093 21.4221 16.7268 19.7324C17.7443 18.0428 19.2981 16.7422 21.1405 16.0381C22.9829 15.3339 25.008 15.2667 26.8931 15.847Z" fill="#414141"/>
<path d="M25.2317 17.1518C25.6718 16.5889 26.2419 16.1411 26.8931 15.847C25.008 15.2667 22.9829 15.3339 21.1405 16.0381C19.2981 16.7422 17.7443 18.0428 16.7268 19.7324C15.7093 21.4221 15.2866 23.4038 15.526 25.3616C15.7654 27.3194 16.6532 29.1407 18.0479 30.5354C19.4426 31.9301 21.264 32.8179 23.2218 33.0573C25.1796 33.2968 27.1612 32.874 28.8509 31.8565C30.5406 30.839 31.8411 29.2853 32.5453 27.4429C33.2494 25.6004 33.3167 23.5753 32.7363 21.6903C32.4422 22.3414 31.9944 22.9115 31.4315 23.3516C30.8686 23.7917 30.2073 24.0886 29.5044 24.2169C28.8015 24.3453 28.0779 24.3011 27.3958 24.0883C26.7137 23.8755 26.0935 23.5004 25.5882 22.9951C25.083 22.4899 24.7078 21.8696 24.495 21.1875C24.2822 20.5054 24.2381 19.7818 24.3664 19.0789C24.4947 18.376 24.7917 17.7147 25.2317 17.1518Z" fill="#414141"/>
<path d="M25.2317 17.1518C25.6718 16.5889 26.2419 16.1411 26.8931 15.847C25.008 15.2667 22.9829 15.3339 21.1405 16.0381C19.2981 16.7422 17.7443 18.0428 16.7268 19.7324C15.7093 21.4221 15.2866 23.4037 15.526 25.3616C15.7654 27.3194 16.6532 29.1407 18.0479 30.5354C19.4426 31.9301 21.264 32.8179 23.2218 33.0573C25.1796 33.2967 27.1612 32.874 28.8509 31.8565C30.5406 30.839 31.8411 29.2853 32.5453 27.4428C33.2494 25.6004 33.3167 23.5753 32.7363 21.6902C32.4422 22.3414 31.9944 22.9115 31.4315 23.3516C30.8686 23.7917 30.2073 24.0886 29.5044 24.2169C28.8015 24.3452 28.0779 24.3011 27.3958 24.0883C26.7137 23.8755 26.0935 23.5004 25.5882 22.9951C25.083 22.4899 24.7078 21.8696 24.495 21.1875C24.2822 20.5054 24.2381 19.7818 24.3664 19.0789C24.4947 18.376 24.7917 17.7147 25.2317 17.1518Z" fill="#ED1C24"/>
</svg>
