<svg width="35" height="35" viewBox="0 0 35 35" fill="none" xmlns="http://www.w3.org/2000/svg">
<path d="M29.3234 14.8437L30.8892 10.9924C31.0647 10.5604 30.8449 10.3234 30.4011 10.4649L28.8436 10.9612C27.1169 7.34765 24.097 4.60953 20.3264 3.24516C16.5189 1.86703 12.4024 2.05443 8.73553 3.77229C5.06901 5.4903 2.29058 8.53351 0.912449 12.3411C-0.065786 15.0454 -0.254978 17.9048 0.332967 20.6488C0.572935 21.7687 0.942212 22.869 1.44015 23.9316C3.15837 27.5983 6.20108 30.3768 10.0086 31.7547C13.8163 33.1329 17.9328 32.9455 21.5995 31.2273C22.1196 30.9837 22.6387 30.7386 23.1045 30.4151C23.7226 29.9857 24.3733 29.6043 23.7346 28.6694C23.0881 27.7235 21.8072 28.4346 20.5649 29.0196C17.4909 30.4672 14.0339 30.6186 10.8383 29.4622C7.64333 28.306 5.08981 25.9743 3.64785 22.8973C3.23009 22.0053 2.92012 21.0821 2.71867 20.1423C2.22575 17.8399 2.38418 15.4395 3.20549 13.1707C4.36187 9.9754 6.69314 7.42152 9.76999 5.98006C12.8471 4.53824 16.3015 4.38132 19.497 5.53713C22.5542 6.64453 25.0219 8.82842 26.4921 11.7108L24.877 12.2261C24.433 12.3676 24.3912 12.6883 24.784 12.9391L28.2895 15.1734C28.6828 15.4237 29.148 15.2752 29.3234 14.8437Z" fill="#414141"/>
<path d="M14.3748 8.67372V17.4385L8.42811 22.2874C8.00562 22.6318 7.94244 23.2537 8.28697 23.676C8.4819 23.9153 8.76605 24.0391 9.05263 24.0391C9.27195 24.0391 9.49262 23.9665 9.67572 23.8169L16.3489 18.3761V8.67372C16.3489 8.12845 15.9069 7.68652 15.362 7.68652C14.8162 7.68652 14.3748 8.12845 14.3748 8.67372Z" fill="#414141"/>
<path d="M31.0468 18.1951C29.9905 18.1951 28.9983 18.6063 28.2673 19.3356L26.9902 20.5618L25.7318 19.3542C24.9857 18.6064 23.9919 18.1951 22.9357 18.1951C21.8796 18.1951 20.8868 18.6082 20.1418 19.3542C19.3939 20.1006 18.9823 21.0926 18.9823 22.1499C18.9823 23.2044 19.3934 24.1982 20.1409 24.9438C20.8856 25.6909 21.8786 26.1029 22.9357 26.1029C23.9912 26.1029 24.9852 25.6919 25.7143 24.9607L26.9908 23.7361L28.2503 24.9438C28.9965 25.6909 29.9906 26.1029 31.0469 26.1029C32.1023 26.1029 33.0944 25.6919 33.8405 24.9438C34.5878 24.1993 34.9999 23.2053 34.9999 22.1481C34.9999 21.0909 34.5894 20.0997 33.8405 19.3526C33.0935 18.6063 32.1014 18.1951 31.0468 18.1951ZM24.1128 23.3251C23.4838 23.9543 22.3887 23.9543 21.7592 23.3251C21.4442 23.0105 21.271 22.5921 21.271 22.149C21.271 21.7039 21.4442 21.2874 21.761 20.9711C22.0738 20.6564 22.4919 20.4831 22.9358 20.4831C23.3798 20.4831 23.7982 20.6564 24.1303 20.987L25.339 22.1499L24.1128 23.3251ZM32.223 23.3251C31.5938 23.9551 30.5142 23.9704 29.8519 23.3089L28.6427 22.1462L29.8689 20.9701C30.498 20.34 31.5938 20.34 32.223 20.9683C32.5377 21.2847 32.7107 21.7014 32.7107 22.1463C32.7107 22.5905 32.5377 23.0106 32.223 23.3251Z" fill="#ED1C24"/>
</svg>
