<svg width="35" height="35" viewBox="0 0 35 35" fill="none" xmlns="http://www.w3.org/2000/svg">
<g clip-path="url(#clip0)">
<path d="M30.8301 13.2113C30.8301 9.67133 29.4434 6.34549 26.9256 3.8461C24.4027 1.3419 21.059 -0.0239489 17.5053 -0.000183291C17.4746 -0.00045032 17.445 -0.00045032 17.4143 -0.00045032C13.8705 -0.00045032 10.5327 1.37715 8.00659 3.88455C5.48824 6.38421 4.10156 9.69643 4.10156 13.2113C4.10156 18.499 7.13715 21.3477 9.35375 23.4279C10.8868 24.8666 11.8262 25.8023 11.8262 26.8648V30.898C11.8262 33.1597 13.666 34.9995 15.9277 34.9995H19.0039C21.2654 34.9995 23.1055 33.1597 23.1055 30.898V26.7281C23.1055 26.6752 23.1017 26.6231 23.0959 26.5718C23.2291 25.7644 23.9106 24.9772 25.0644 23.8797C25.6115 23.3592 25.6332 22.4941 25.1127 21.9469C24.5923 21.3998 23.7268 21.3779 23.18 21.8986C22.0504 22.9728 21.0085 24.0626 20.5639 25.4292H14.3341C13.8308 23.8802 12.5568 22.6839 11.2248 21.4342C9.06723 19.4091 6.83594 17.3153 6.83594 13.2113C6.83594 10.4308 7.93583 7.80774 9.93294 5.82505C11.9431 3.82981 14.5971 2.73392 17.4148 2.73392C17.4418 2.73392 17.4685 2.73419 17.4952 2.73419C17.5019 2.73446 17.5088 2.73446 17.5155 2.73419C17.5422 2.73419 17.5686 2.73392 17.5953 2.73392C20.3874 2.73392 23.0141 3.81619 24.9992 5.7866C26.9277 7.70093 28.0193 10.2257 28.092 12.9235C28.0719 13.0161 28.0615 13.1125 28.0615 13.2111C28.0615 14.7924 27.7438 16.1663 27.0903 17.4109C26.7395 18.0795 26.9966 18.906 27.6653 19.2571C28.3339 19.608 29.1603 19.3506 29.5112 18.6822C30.3302 17.1225 30.7502 15.4346 30.7924 13.5312C30.817 13.4287 30.8301 13.3213 30.8301 13.2113ZM19.0039 32.2652H15.9277C15.1739 32.2652 14.5605 31.6518 14.5605 30.898V28.1636H20.3711V30.898C20.3711 31.6518 19.7577 32.2652 19.0039 32.2652ZM1.36719 14.7254C0.61203 14.7254 0 14.1134 0 13.3582C0 12.6033 0.61203 11.991 1.36719 11.991C2.12234 11.991 2.73438 12.6033 2.73438 13.3582C2.73438 14.1134 2.12234 14.7254 1.36719 14.7254ZM35 13.3582C35 14.1134 34.388 14.7254 33.6328 14.7254C32.8777 14.7254 32.2656 14.1134 32.2656 13.3582C32.2656 12.6033 32.8777 11.991 33.6328 11.991C34.388 11.991 35 12.6033 35 13.3582ZM30.5566 5.74174C30.5566 4.98685 31.1687 4.37455 31.9238 4.37455C32.679 4.37455 33.291 4.98685 33.291 5.74174C33.291 6.49689 32.679 7.10892 31.9238 7.10892C31.1687 7.10892 30.5566 6.49689 30.5566 5.74174ZM1.70898 5.74174C1.70898 4.98685 2.32101 4.37455 3.07617 4.37455C3.83133 4.37455 4.44336 4.98685 4.44336 5.74174C4.44336 6.49689 3.83133 7.10892 3.07617 7.10892C2.32101 7.10892 1.70898 6.49689 1.70898 5.74174ZM33.291 20.7124C33.291 21.4676 32.679 22.0796 31.9238 22.0796C31.1687 22.0796 30.5566 21.4676 30.5566 20.7124C30.5566 19.9573 31.1687 19.3453 31.9238 19.3453C32.679 19.3453 33.291 19.9573 33.291 20.7124ZM4.44336 20.7124C4.44336 21.4676 3.83133 22.0796 3.07617 22.0796C2.32101 22.0796 1.70898 21.4676 1.70898 20.7124C1.70898 19.9573 2.32101 19.3453 3.07617 19.3453C3.83133 19.3453 4.44336 19.9573 4.44336 20.7124Z" fill="#414141"/>
<path d="M21.688 15.64C21.688 14.616 21.416 13.8 20.808 13.24C20.312 12.76 19.672 12.488 18.632 12.344L17.272 12.136C16.792 12.072 16.456 11.912 16.232 11.704C15.992 11.48 15.912 11.192 15.912 10.888C15.912 10.104 16.472 9.448 17.656 9.448C18.408 9.448 19.288 9.544 19.992 10.232L21.4 8.84C20.424 7.896 19.288 7.512 17.72 7.512C15.256 7.512 13.752 8.936 13.752 10.968C13.752 11.928 14.024 12.68 14.568 13.208C15.08 13.704 15.768 14.008 16.776 14.152L18.136 14.36C18.712 14.44 18.936 14.536 19.16 14.744C19.4 14.984 19.512 15.304 19.512 15.688C19.512 16.6 18.808 17.112 17.48 17.112C16.44 17.112 15.464 16.872 14.744 16.152L13.304 17.592C14.424 18.728 15.736 19.096 17.464 19.096C19.864 19.096 21.688 17.848 21.688 15.64Z" fill="#ED1C24"/>
</g>
<defs>
<clipPath id="clip0">
<rect width="35" height="35" fill="white"/>
</clipPath>
</defs>
</svg>
