<svg width="53" height="53" viewBox="0 0 53 53" fill="none" xmlns="http://www.w3.org/2000/svg">
<g clip-path="url(#clip0)">
<path d="M6.31468 21.5756C6.31468 19.1276 7.28079 16.7574 8.96529 15.0728C11.2611 12.777 12.5256 9.72451 12.5256 6.47766V5.94445L14.5332 7.95192L16.729 5.75606L10.9729 0L5.2167 5.75616L7.41256 7.95202L9.42013 5.94456V6.47776C9.42013 8.89505 8.47876 11.1677 6.76952 12.8771C4.50689 15.1397 3.20923 18.3102 3.20923 21.5757V24.9476H6.31468V21.5756Z" fill="#ED1C24"/>
<path d="M40.4746 5.94445V6.47766C40.4746 9.72441 41.7389 12.777 44.0349 15.0728C45.7194 16.7574 46.6855 19.1275 46.6855 21.5756V24.9475H49.7909V21.5756C49.7909 18.31 48.4933 15.1396 46.2306 12.877C44.5213 11.1676 43.58 8.89494 43.58 6.47766V5.94445L45.5876 7.95192L47.7835 5.75606L42.0273 0L36.2712 5.75616L38.4671 7.95202L40.4746 5.94445Z" fill="#ED1C24"/>
<path d="M17.1838 18.7365H12.5256V20.2893C12.5256 26.2825 17.4015 31.1583 23.3947 31.1583H24.9474V34.2638H15.6311V43.5801H18.7365V53H34.2638V43.5801H37.3692V34.2638H28.0529V31.1583H29.6056C35.5988 31.1583 40.4747 26.2825 40.4747 20.2893V18.7365H35.8165C32.7779 18.7365 30.0272 19.9904 28.0529 22.0072V15.3714C31.5923 14.6501 34.2638 11.5132 34.2638 7.76393C34.2638 3.48307 30.781 0.000305176 26.5002 0.000305176C22.2193 0.000305176 18.7365 3.48307 18.7365 7.76393C18.7365 11.5131 21.4081 14.65 24.9474 15.3714V22.0072C22.9731 19.9904 20.2223 18.7365 17.1838 18.7365ZM23.3947 28.0529C19.6455 28.0529 16.5085 25.3813 15.7871 21.842H17.1838C20.933 21.842 24.07 24.5136 24.7914 28.0529H23.3947ZM31.1583 49.8946H21.842V43.5801H31.1583V49.8946ZM34.2638 40.4747H18.7365V37.3692H34.2638V40.4747ZM35.8165 21.8409H37.2132C36.4918 25.3802 33.3548 28.0529 29.6056 28.0529H28.2089C28.9303 24.5137 32.0673 21.8409 35.8165 21.8409ZM21.842 7.76393C21.842 5.19542 23.9316 3.10576 26.5002 3.10576C29.0687 3.10576 31.1583 5.19542 31.1583 7.76393C31.1583 10.3325 29.0687 12.4221 26.5002 12.4221C23.9316 12.4221 21.842 10.3325 21.842 7.76393Z" fill="#414141"/>
<circle cx="26.5" cy="8.5" r="6" stroke="#ED1C24" stroke-width="5"/>
</g>
<defs>
<clipPath id="clip0">
<rect width="53" height="53" fill="white"/>
</clipPath>
</defs>
</svg>
