<svg width="20" height="20" viewBox="0 0 20 20" fill="none" xmlns="http://www.w3.org/2000/svg">
<path d="M6.11094 12.4312C5.93906 12.5922 5.76562 12.4 5.76562 12.4C5.76562 12.4 2.87812 9.34062 2.69062 9.20312C2.42656 9.01093 1.86094 8.70937 1.29531 9.29218C1.05937 9.53437 0.674999 10.0734 1.38906 10.9422C1.54375 11.1297 6.04219 15.8703 6.30469 16.1266C6.30469 16.1266 8.38281 18.1484 9.64062 18.9094C9.98906 19.1203 10.3812 19.3437 10.8391 19.5C11.2953 19.6562 11.8109 19.7641 12.3547 19.7641C12.8984 19.7703 13.4625 19.6656 13.9953 19.4703C14.5281 19.2734 15.025 18.9875 15.4766 18.6578C15.5875 18.5734 15.7 18.4891 15.8047 18.3984L16.1078 18.1484C16.3187 17.9719 16.5156 17.7859 16.7047 17.5969C17.0844 17.2187 17.4266 16.8141 17.7281 16.4C18.0281 15.9844 18.2828 15.5547 18.4859 15.1266C18.6891 14.6984 18.8313 14.2687 18.9172 13.8625C19.0078 13.4578 19.0328 13.075 19.0188 12.7406C19.0156 12.4062 18.9484 12.1203 18.8938 11.8922C18.8313 11.6641 18.7641 11.4937 18.7109 11.3812C18.6594 11.2687 18.6313 11.2094 18.6313 11.2094C18.5594 11.0078 18.4906 10.8156 18.4297 10.6422C18.2578 10.1531 18.0594 9.60468 17.8531 9.04062C17.7656 8.80156 17.725 8.69375 17.725 8.69375L17.7266 8.69843C16.9688 6.64062 16.1547 4.52031 16.1547 4.52031C16.0312 4.14687 15.5766 4.01718 15.2422 4.25781C14.2766 4.95156 13.9813 5.96406 14.3219 7.04375L15.1953 9.4375C15.3188 9.70469 14.9781 10.0141 14.75 9.82812C14.0328 9.24375 12.5156 7.63281 12.5156 7.63281C11.8375 6.98281 8.01094 3.05937 7.75469 2.82031C7.23906 2.34062 6.58906 2.09375 6.09375 2.45781C5.5875 2.82968 5.44687 3.40468 5.93594 4.03281C6.06875 4.20312 9.93594 8.28906 9.93594 8.28906C10.1609 8.525 9.89531 8.85937 9.64687 8.62968C9.64687 8.62968 4.83594 3.61093 4.61875 3.37656C4.12656 2.84219 3.33594 2.725 2.86719 3.16562C2.40937 3.59531 2.42031 4.3 2.92031 4.85312C3.07969 5.02812 6.46875 8.60625 7.825 10.0719C7.91562 10.1703 7.98594 10.3016 7.85156 10.425C7.85 10.4266 7.71406 10.5734 7.53906 10.3859C7.17031 9.99219 3.4875 6.15469 3.28281 5.94687C2.8125 5.46875 2.18125 5.24218 1.67344 5.70781C1.21094 6.13125 1.13594 6.87031 1.66719 7.39219L6.12812 12.1078C6.12812 12.1078 6.27344 12.2797 6.11094 12.4312Z" fill="#FAC036"/>
<path d="M13.3531 8.5L13.7297 8.90312C13.7297 8.90312 11.575 10.9828 13.0438 14.1766C13.0438 14.1766 13.2344 14.5812 12.9844 14.6484C12.9844 14.6484 12.7656 14.7703 12.5156 14.1484C12.5156 14.1469 11.0328 11.1141 13.3531 8.5Z" fill="#E48C15"/>
</svg>
