<svg width="35" height="35" viewBox="0 0 35 35" fill="none" xmlns="http://www.w3.org/2000/svg">
<g clip-path="url(#clip0)">
<path d="M32.9487 29.0575V11.3132C32.9487 10.7471 32.4894 10.2878 31.9233 10.2878C31.3569 10.2878 30.8979 10.7471 30.8979 11.3132V16.4402H25.771C25.2046 16.4402 24.7456 16.8992 24.7456 17.4656C24.7456 18.0317 25.2046 18.4909 25.771 18.4909H30.8979V29.0575C30.0253 29.367 29.3329 30.0594 29.0234 30.9321H18.5935V23.6176C18.5935 23.0515 18.1342 22.5922 17.5681 22.5922C17.0017 22.5922 16.5427 23.0515 16.5427 23.6176V30.9321H5.97584C5.66635 30.0594 4.97395 29.367 4.10156 29.0575V18.4909H11.4157C11.9821 18.4909 12.4411 18.0317 12.4411 17.4656C12.4411 16.8992 11.9821 16.4402 11.4157 16.4402H4.10156V6.01002C4.97395 5.70053 5.66635 5.00813 5.97584 4.13574H16.5427V9.26243C16.5427 9.8288 17.0017 10.2878 17.5681 10.2878C18.1342 10.2878 18.5935 9.8288 18.5935 9.26243V4.13574H23.7202C24.2865 4.13574 24.7456 3.67645 24.7456 3.11035C24.7456 2.54398 24.2865 2.08496 23.7202 2.08496H5.97584C5.5526 0.891609 4.41292 0.0341797 3.07617 0.0341797C1.38001 0.0341797 0 1.41418 0 3.11035C0 4.4471 0.857163 5.58678 2.05078 6.01002V29.0575C0.857163 29.4808 0 30.6207 0 31.9575C0 33.6536 1.38001 35.0334 3.07617 35.0334C4.41292 35.0334 5.5526 34.1762 5.97584 32.9829H29.0234C29.4466 34.1762 30.5866 35.0334 31.9233 35.0334C33.6195 35.0334 34.9992 33.6536 34.9992 31.9575C34.9992 30.6207 34.142 29.4808 32.9487 29.0575ZM3.07617 2.08496C3.64147 2.08496 4.10156 2.54478 4.10156 3.11035C4.10156 3.67565 3.64147 4.13574 3.07617 4.13574C2.51061 4.13574 2.05078 3.67565 2.05078 3.11035C2.05078 2.54478 2.51061 2.08496 3.07617 2.08496ZM3.07617 32.9829C2.51061 32.9829 2.05078 32.5228 2.05078 31.9575C2.05078 31.3919 2.51061 30.9321 3.07617 30.9321C3.64147 30.9321 4.10156 31.3919 4.10156 31.9575C4.10156 32.5228 3.64147 32.9829 3.07617 32.9829ZM31.9233 32.9829C31.3577 32.9829 30.8979 32.5228 30.8979 31.9575C30.8979 31.3919 31.3577 30.9321 31.9233 30.9321C32.4886 30.9321 32.9487 31.3919 32.9487 31.9575C32.9487 32.5228 32.4886 32.9829 31.9233 32.9829Z" fill="#414141"/>
<path d="M29.7481 0.935064L17.1436 13.5396C17.1436 13.5396 17.1436 13.5396 17.1433 13.5399C17.1433 13.5399 17.1433 13.5402 17.143 13.5402L15.1958 15.4876C15.0832 15.6 14.9982 15.7373 14.948 15.8884L13.5744 20.0089L12.2956 21.288C11.8951 21.6883 11.8951 22.3377 12.2956 22.738C12.6959 23.1382 13.3453 23.1385 13.7456 22.738L15.0244 21.4592L19.1452 20.0856C19.2963 20.0351 19.4336 19.9505 19.546 19.8378L34.0983 5.2855C35.3004 4.08333 35.3007 2.13723 34.0983 0.935064C32.8991 -0.264162 30.9476 -0.264162 29.7481 0.935064ZM18.2669 18.2166L16.092 18.9416L16.817 16.7664L17.8683 15.7151L19.3185 17.1651L18.2669 18.2166ZM20.7685 15.7151L19.3185 14.2649L29.0226 4.56078L30.4728 6.01075L20.7685 15.7151ZM32.6483 3.83526L31.9228 4.56078L30.4728 3.11055L31.1981 2.3853C31.5981 1.98556 32.2486 1.98556 32.6483 2.3853C33.0491 2.78611 33.0491 3.43445 32.6483 3.83526Z" fill="#ED1C24"/>
</g>
<defs>
<clipPath id="clip0">
<rect width="35" height="34.9316" fill="white"/>
</clipPath>
</defs>
</svg>
