<svg width="53" height="53" viewBox="0 0 53 53" fill="none" xmlns="http://www.w3.org/2000/svg">
<g clip-path="url(#clip0)">
<path d="M12.1113 17.7012C12.1113 12.5068 16.3368 8.28125 21.5312 8.28125V12.4219C18.6202 12.4219 16.2519 14.7902 16.2519 17.7012H12.1113ZM32.6628 26.7762C34.0453 27.2214 35.5099 27.4818 37.0274 27.5275C36.0432 29.3386 34.8795 30.8719 33.776 32.324C31.5682 35.2297 29.8238 37.5248 29.8238 41.3456V46.7891C29.8238 50.214 27.0378 53 23.6128 53H19.6562C16.2317 53 13.4453 50.214 13.4453 46.7891V41.3456C13.4453 37.5248 11.7013 35.2297 9.49348 32.324C6.85342 28.8497 3.8632 24.9149 3.83044 17.8047V17.6862C3.89433 7.92299 11.8565 0 21.6347 0C23.2194 0 24.7564 0.209457 26.2197 0.599663C25.1539 1.68375 24.2428 2.91946 23.5219 4.27164C22.9048 4.18591 22.2752 4.14062 21.6347 4.14062C14.1177 4.14062 7.99897 10.2416 7.97066 17.7521C7.98846 23.4997 10.3212 26.5695 12.7902 29.8186C14.7061 32.3397 16.6749 34.9305 17.3457 38.6113H25.9238C26.5946 34.9305 28.5634 32.3397 30.4792 29.8186C31.2415 28.8154 31.9907 27.8291 32.6628 26.7762ZM25.6832 46.7891V42.752H17.5859V46.7891C17.5859 47.9306 18.5147 48.8594 19.6562 48.8594H23.6128C24.7548 48.8594 25.6832 47.9306 25.6832 46.7891Z" fill="#414141"/>
<path d="M28.3722 15.9916L34.8492 20.4171C33.2376 21.4623 31.2792 21.8308 29.398 21.4428C28.3527 19.8313 27.9842 17.8729 28.3722 15.9916V15.9916ZM40.4417 17.1913L40.8582 20.5524L39.6406 22.3344L24.8445 12.2248L26.0621 10.4428L29.3446 9.60915L33.0125 4.24096C35.2132 1.02004 39.4016 -0.138779 43.3283 1.05478C45.8675 4.2791 46.3103 8.60222 44.1096 11.8231L40.4417 17.1913ZM37.2973 9.88155C37.7879 10.2167 38.3914 10.3433 38.9753 10.2334C39.5591 10.1235 40.0754 9.78626 40.4105 9.29574C40.7457 8.80522 40.8723 8.20165 40.7624 7.61781C40.6525 7.03398 40.3152 6.51769 39.8247 6.18254C39.3342 5.84739 38.7306 5.72082 38.1468 5.83068C37.563 5.94054 37.0467 6.27783 36.7115 6.76835C36.3764 7.25887 36.2498 7.86244 36.3597 8.44628C36.4695 9.03011 36.8068 9.5464 37.2973 9.88155Z" fill="#ED1C24"/>
</g>
<defs>
<clipPath id="clip0">
<rect width="53" height="53" fill="white"/>
</clipPath>
</defs>
</svg>
