<svg width="157" height="48" viewBox="0 0 157 48" fill="none" xmlns="http://www.w3.org/2000/svg">
<path d="M16.66 31.12C16.66 26.32 15.74 24.52 12.34 23.12L8.98 21.76C6.98 20.96 6.62 20.24 6.62 17.92C6.62 16.68 6.86 15.72 7.38 15.12C7.82 14.64 8.38 14.32 9.3 14.32C10.26 14.32 10.9 14.64 11.3 15.16C11.9 15.92 11.98 16.92 11.98 18.2H16.46C16.46 15.48 15.94 13.44 14.46 12C13.3 10.88 11.62 10.28 9.34 10.28C7.3 10.28 5.7 10.92 4.46 12C2.9 13.4 2.14 15.48 2.14 18.04C2.14 22.44 3.22 24 6.1 25.2L9.5 26.6C11.7 27.48 12.18 28.24 12.18 31.28C12.18 32.8 12.02 33.76 11.42 34.44C10.98 34.96 10.3 35.24 9.26 35.24C8.26 35.24 7.58 34.92 7.18 34.48C6.54 33.76 6.38 32.8 6.38 31.28H1.9C1.9 34.28 2.38 36.04 3.74 37.4C4.94 38.6 6.78 39.28 9.26 39.28C11.78 39.28 13.66 38.52 14.82 37.4C16.26 36 16.66 34.04 16.66 31.12ZM33.24 10.52H28.32L25.48 21.8L22.68 10.52H17.72L23.24 27.84V39H27.72V27.84L33.24 10.52ZM50.5469 39V10.52H46.0669V27.44L39.3869 10.52H35.3869V39H39.8669V22.08L46.5869 39H50.5469ZM67.5478 14.56V10.52H53.5078V14.56H58.2678V39H62.7478V14.56H67.5478ZM85.0109 39V10.52H80.5309V22.52H74.9709V10.52H70.4909V39H74.9709V26.56H80.5309V39H85.0109ZM101.507 39V34.96H94.0269V26.68H100.467V22.64H94.0269V14.56H101.507V10.52H89.5469V39H101.507ZM118.886 31.12C118.886 26.32 117.966 24.52 114.566 23.12L111.206 21.76C109.206 20.96 108.846 20.24 108.846 17.92C108.846 16.68 109.086 15.72 109.606 15.12C110.046 14.64 110.606 14.32 111.526 14.32C112.486 14.32 113.126 14.64 113.526 15.16C114.126 15.92 114.206 16.92 114.206 18.2H118.686C118.686 15.48 118.166 13.44 116.686 12C115.526 10.88 113.846 10.28 111.566 10.28C109.526 10.28 107.926 10.92 106.686 12C105.126 13.4 104.366 15.48 104.366 18.04C104.366 22.44 105.446 24 108.326 25.2L111.726 26.6C113.926 27.48 114.406 28.24 114.406 31.28C114.406 32.8 114.246 33.76 113.646 34.44C113.206 34.96 112.526 35.24 111.486 35.24C110.486 35.24 109.806 34.92 109.406 34.48C108.766 33.76 108.606 32.8 108.606 31.28H104.126C104.126 34.28 104.606 36.04 105.966 37.4C107.166 38.6 109.006 39.28 111.486 39.28C114.006 39.28 115.886 38.52 117.046 37.4C118.486 36 118.886 34.04 118.886 31.12ZM127.022 39V10.52H122.542V39H127.022ZM145.318 31.12C145.318 26.32 144.398 24.52 140.998 23.12L137.638 21.76C135.638 20.96 135.278 20.24 135.278 17.92C135.278 16.68 135.518 15.72 136.038 15.12C136.478 14.64 137.038 14.32 137.958 14.32C138.918 14.32 139.558 14.64 139.958 15.16C140.558 15.92 140.638 16.92 140.638 18.2H145.118C145.118 15.48 144.598 13.44 143.118 12C141.958 10.88 140.278 10.28 137.998 10.28C135.958 10.28 134.358 10.92 133.118 12C131.558 13.4 130.798 15.48 130.798 18.04C130.798 22.44 131.878 24 134.758 25.2L138.158 26.6C140.358 27.48 140.838 28.24 140.838 31.28C140.838 32.8 140.678 33.76 140.078 34.44C139.638 34.96 138.958 35.24 137.918 35.24C136.918 35.24 136.238 34.92 135.838 34.48C135.198 33.76 135.038 32.8 135.038 31.28H130.558C130.558 34.28 131.038 36.04 132.398 37.4C133.598 38.6 135.438 39.28 137.918 39.28C140.438 39.28 142.318 38.52 143.478 37.4C144.918 36 145.318 34.04 145.318 31.12Z" fill="white"/>
<circle cx="152" cy="35.1875" r="4.8125" fill="#ED1C24"/>
</svg>
