<svg width="48" height="59" viewBox="0 0 48 59" fill="none" xmlns="http://www.w3.org/2000/svg">
<path d="M30.32 42.24C30.32 32.64 28.48 29.04 21.68 26.24L14.96 23.52C10.96 21.92 10.24 20.48 10.24 15.84C10.24 13.36 10.72 11.44 11.76 10.24C12.64 9.28 13.76 8.64 15.6 8.64C17.52 8.64 18.8 9.28 19.6 10.32C20.8 11.84 20.96 13.84 20.96 16.4H29.92C29.92 10.96 28.88 6.88 25.92 4C23.6 1.76 20.24 0.559996 15.68 0.559996C11.6 0.559996 8.4 1.84 5.92 4C2.8 6.8 1.28 10.96 1.28 16.08C1.28 24.88 3.44 28 9.2 30.4L16 33.2C20.4 34.96 21.36 36.48 21.36 42.56C21.36 45.6 21.04 47.52 19.84 48.88C18.96 49.92 17.6 50.48 15.52 50.48C13.52 50.48 12.16 49.84 11.36 48.96C10.08 47.52 9.76 45.6 9.76 42.56H0.8C0.8 48.56 1.76 52.08 4.48 54.8C6.88 57.2 10.56 58.56 15.52 58.56C20.56 58.56 24.32 57.04 26.64 54.8C29.52 52 30.32 48.08 30.32 42.24Z" fill="white"/>
<path d="M37.0766 56.6816C35.8754 55.4805 35.2748 54.001 35.2748 52.2432C35.2748 50.4854 35.8754 49.0059 37.0766 47.8047C38.2777 46.5742 39.7572 45.959 41.515 45.959C43.2729 45.959 44.7523 46.5742 45.9535 47.8047C47.184 49.0059 47.7992 50.4854 47.7992 52.2432C47.7992 54.001 47.184 55.4805 45.9535 56.6816C44.7523 57.8535 43.2729 58.4395 41.515 58.4395C39.7572 58.4395 38.2777 57.8535 37.0766 56.6816Z" fill="#ED1C24"/>
</svg>
