<svg width="35" height="35" viewBox="0 0 35 35" fill="none" xmlns="http://www.w3.org/2000/svg">
<path d="M31.7188 16.4746H29.6084C29.3294 14.0556 28.0754 11.9292 26.25 10.5001V0H15.3125V4.10156H3.28125V18.8672H11.9997C12.3528 21.1444 13.5736 23.1386 15.3125 24.4999V35H26.25V24.4999C28.0754 23.0708 29.3294 20.9444 29.6084 18.5254H31.7188V16.4746ZM17.3633 2.05078H24.1992V9.29741C23.1466 8.85708 21.992 8.61328 20.7812 8.61328V4.10156H17.3633V2.05078ZM5.33203 6.15234H18.7305V18.0816L16.6217 16.8164H5.33203V6.15234ZM24.1992 32.9492H17.3633V25.7026C18.4159 26.1429 19.5705 26.3867 20.7812 26.3867C21.992 26.3867 23.1466 26.1429 24.1992 25.7026V32.9492ZM20.7812 24.3359C17.48 24.3359 14.7178 21.9837 14.0828 18.8672H16.0538L20.7812 21.7036V10.6641C24.5506 10.6641 27.6172 13.7306 27.6172 17.5C27.6172 21.2694 24.5506 24.3359 20.7812 24.3359Z" fill="#414141"/>
<path d="M13.678 11.3557C13.548 11.2422 13.3915 11.1436 13.2083 11.0603C13.0249 10.9768 12.8198 10.9004 12.5925 10.831C12.5415 10.8171 12.4927 10.8021 12.4465 10.7858C12.4 10.7695 12.3559 10.7567 12.3143 10.7476V10.1217C12.4441 10.145 12.5728 10.1786 12.7004 10.2227C12.8281 10.2667 12.9429 10.3143 13.0449 10.3653C13.1653 10.4208 13.2767 10.4809 13.3789 10.5458L13.9632 9.42665C13.8657 9.38045 13.7589 9.33052 13.643 9.27711C13.5271 9.22398 13.4032 9.17297 13.2711 9.12411C13.1386 9.07551 13.0006 9.03278 12.8569 8.99567C12.7132 8.95855 12.5648 8.93078 12.4118 8.91209V8.20312H11.855V8.90514C11.6368 8.92838 11.4318 8.98178 11.2392 9.06509C11.0467 9.14841 10.8785 9.25976 10.7348 9.39888C10.5909 9.538 10.4774 9.70356 10.3938 9.89582C10.3102 10.0883 10.2686 10.3094 10.2686 10.5599C10.2686 10.7404 10.2929 10.9004 10.3418 11.0395C10.3904 11.1786 10.4657 11.3025 10.5679 11.4115C10.6699 11.5204 10.7997 11.6176 10.9575 11.7033C11.1151 11.7893 11.3031 11.8692 11.521 11.9431C11.6649 11.9944 11.8085 12.0382 11.9525 12.0753V12.6871C11.7853 12.6638 11.6219 12.6233 11.4619 12.5653C11.3017 12.5074 11.1615 12.4483 11.0408 12.388C10.8972 12.3186 10.7626 12.2443 10.6374 12.1656L10.0528 13.3544C10.3033 13.5028 10.5863 13.6254 10.9017 13.7229C11.2171 13.8203 11.5348 13.8828 11.855 13.9106V14.7656H12.4115V13.9245C12.6248 13.9106 12.8313 13.8724 13.0307 13.8097C13.2302 13.7472 13.4075 13.6545 13.5629 13.5317C13.7183 13.4089 13.8436 13.2513 13.9386 13.059C14.0337 12.8668 14.0815 12.6339 14.0815 12.3602C14.0815 12.1287 14.0465 11.9316 13.9771 11.7696C13.9074 11.6072 13.8078 11.4694 13.678 11.3557ZM11.9525 10.6293C11.8595 10.5922 11.7898 10.5516 11.7437 10.5076C11.6972 10.4635 11.674 10.4069 11.674 10.3372C11.674 10.2029 11.7669 10.1241 11.9525 10.1009V10.6293ZM12.5509 12.6385C12.5044 12.6756 12.4256 12.6988 12.3143 12.7079V12.1933C12.407 12.2307 12.4812 12.2734 12.537 12.322C12.5925 12.3709 12.6203 12.4275 12.6203 12.4924C12.6203 12.5528 12.5971 12.6014 12.5509 12.6385Z" fill="#ED1C24"/>
</svg>
