<svg width="61" height="61" viewBox="0 0 61 61" fill="none" xmlns="http://www.w3.org/2000/svg">
<path d="M22.875 27.9583C24.8858 27.9583 26.8514 27.3621 28.5233 26.2449C30.1952 25.1278 31.4983 23.54 32.2678 21.6823C33.0373 19.8246 33.2386 17.7804 32.8463 15.8083C32.454 13.8361 31.4858 12.0246 30.0639 10.6028C28.6421 9.18092 26.8306 8.21264 24.8584 7.82035C22.8863 7.42807 20.8421 7.62941 18.9844 8.3989C17.1267 9.16839 15.5389 10.4715 14.4217 12.1434C13.3046 13.8153 12.7083 15.7809 12.7083 17.7917C12.7083 20.488 13.7795 23.074 15.6861 24.9806C17.5927 26.8872 20.1786 27.9583 22.875 27.9583ZM22.875 12.7083C23.8804 12.7083 24.8632 13.0065 25.6992 13.565C26.5351 14.1236 27.1867 14.9175 27.5714 15.8464C27.9561 16.7752 28.0568 17.7973 27.8607 18.7834C27.6645 19.7695 27.1804 20.6752 26.4695 21.3861C25.7586 22.097 24.8528 22.5812 23.8667 22.7773C22.8806 22.9735 21.8586 22.8728 20.9297 22.4881C20.0008 22.1033 19.2069 21.4518 18.6484 20.6158C18.0898 19.7799 17.7917 18.7971 17.7917 17.7917C17.7917 16.4435 18.3272 15.1505 19.2806 14.1972C20.2339 13.2439 21.5268 12.7083 22.875 12.7083Z" fill="#ED1C24"/>
<path d="M43.2083 33.0417C44.7164 33.0417 46.1906 32.5945 47.4446 31.7566C48.6985 30.9188 49.6758 29.7279 50.2529 28.3346C50.83 26.9413 50.981 25.4082 50.6868 23.9291C50.3926 22.45 49.6664 21.0913 48.6 20.025C47.5337 18.9586 46.175 18.2324 44.6959 17.9382C43.2168 17.644 41.6837 17.795 40.2904 18.3721C38.8971 18.9492 37.7062 19.9265 36.8684 21.1804C36.0305 22.4344 35.5833 23.9086 35.5833 25.4167C35.5833 27.4389 36.3867 29.3784 37.8167 30.8084C39.2466 32.2383 41.1861 33.0417 43.2083 33.0417ZM43.2083 22.875C43.711 22.875 44.2024 23.0241 44.6204 23.3033C45.0384 23.5826 45.3642 23.9796 45.5565 24.444C45.7489 24.9084 45.7992 25.4195 45.7012 25.9125C45.6031 26.4056 45.361 26.8584 45.0056 27.2139C44.6501 27.5693 44.1972 27.8114 43.7042 27.9095C43.2112 28.0076 42.7001 27.9572 42.2357 27.7649C41.7713 27.5725 41.3743 27.2467 41.095 26.8287C40.8157 26.4108 40.6667 25.9194 40.6667 25.4167C40.6667 24.7426 40.9345 24.0961 41.4111 23.6194C41.8878 23.1428 42.5343 22.875 43.2083 22.875Z" fill="#5F6B7A"/>
<path d="M43.2083 35.5833C40.3917 35.5864 37.656 36.5252 35.4308 38.2521C32.9413 35.7723 29.7732 34.0853 26.3261 33.4037C22.8791 32.7221 19.3073 33.0764 16.0614 34.4221C12.8154 35.7678 10.0406 38.0445 8.08694 40.9651C6.13323 43.8858 5.0881 47.3195 5.08334 50.8333C5.08334 51.5074 5.35113 52.1539 5.82778 52.6306C6.30444 53.1072 6.95092 53.375 7.62501 53.375C8.2991 53.375 8.94559 53.1072 9.42224 52.6306C9.8989 52.1539 10.1667 51.5074 10.1667 50.8333C10.1667 47.4629 11.5056 44.2305 13.8889 41.8472C16.2721 39.4639 19.5046 38.125 22.875 38.125C26.2455 38.125 29.4779 39.4639 31.8612 41.8472C34.2444 44.2305 35.5833 47.4629 35.5833 50.8333C35.5833 51.5074 35.8511 52.1539 36.3278 52.6306C36.8044 53.1072 37.4509 53.375 38.125 53.375C38.7991 53.375 39.4456 53.1072 39.9222 52.6306C40.3989 52.1539 40.6667 51.5074 40.6667 50.8333C40.6727 47.8556 39.9205 44.9253 38.4808 42.3187C39.6041 41.4312 40.9545 40.8777 42.3775 40.7217C43.8006 40.5657 45.2388 40.8135 46.5277 41.4367C47.8165 42.0599 48.9038 43.0334 49.6653 44.2456C50.4267 45.4579 50.8315 46.8601 50.8333 48.2917C50.8333 48.9658 51.1011 49.6122 51.5778 50.0889C52.0544 50.5655 52.7009 50.8333 53.375 50.8333C54.0491 50.8333 54.6956 50.5655 55.1722 50.0889C55.6489 49.6122 55.9167 48.9658 55.9167 48.2917C55.9167 44.9212 54.5778 41.6888 52.1945 39.3055C49.8112 36.9222 46.5788 35.5833 43.2083 35.5833Z" fill="#414141"/>
</svg>
