<svg width="56" height="56" viewBox="0 0 56 56" fill="none" xmlns="http://www.w3.org/2000/svg">
<path d="M49 37.3333H46.6667V21C46.6667 19.1435 45.9292 17.363 44.6164 16.0503C43.3037 14.7375 41.5232 14 39.6667 14H37.3333C36.7145 14 36.121 14.2458 35.6834 14.6834C35.2458 15.121 35 15.7145 35 16.3333C35 16.9522 35.2458 17.5457 35.6834 17.9832C36.121 18.4208 36.7145 18.6667 37.3333 18.6667H39.6667C40.2855 18.6667 40.879 18.9125 41.3166 19.3501C41.7542 19.7877 42 20.3812 42 21V37.3333H14V30.3333C14 29.7145 13.7542 29.121 13.3166 28.6834C12.879 28.2458 12.2855 28 11.6667 28C11.0478 28 10.4543 28.2458 10.0167 28.6834C9.57916 29.121 9.33332 29.7145 9.33332 30.3333V37.3333H6.99999C6.38115 37.3333 5.78766 37.5792 5.35007 38.0167C4.91249 38.4543 4.66666 39.0478 4.66666 39.6667V44.3333C4.66666 46.1898 5.40415 47.9703 6.71691 49.2831C8.02966 50.5958 9.81014 51.3333 11.6667 51.3333H44.3333C46.1898 51.3333 47.9703 50.5958 49.2831 49.2831C50.5958 47.9703 51.3333 46.1898 51.3333 44.3333V39.6667C51.3333 39.0478 51.0875 38.4543 50.6499 38.0167C50.2123 37.5792 49.6188 37.3333 49 37.3333ZM46.6667 44.3333C46.6667 44.9522 46.4208 45.5457 45.9832 45.9833C45.5457 46.4208 44.9522 46.6667 44.3333 46.6667H11.6667C11.0478 46.6667 10.4543 46.4208 10.0167 45.9833C9.57916 45.5457 9.33332 44.9522 9.33332 44.3333V42H46.6667V44.3333Z" fill="#414141"/>
<path d="M19.5977 25.76H27.4422C26.7013 27.5322 25.2922 28.9413 23.52 29.6822C21.7478 28.9413 20.3387 27.5322 19.5977 25.76V25.76ZM30.24 19.9416L32.48 22.4818V24.64H14.56V22.4818L16.8 19.9416V13.44C16.8 9.53903 19.6044 6.21935 23.52 4.98959C27.4355 6.21935 30.24 9.53903 30.24 13.44V19.9416ZM23.52 15.68C24.1141 15.68 24.6838 15.444 25.1039 15.0239C25.524 14.6038 25.76 14.0341 25.76 13.44C25.76 12.8459 25.524 12.2762 25.1039 11.8561C24.6838 11.436 24.1141 11.2 23.52 11.2C22.9259 11.2 22.3561 11.436 21.936 11.8561C21.516 12.2762 21.28 12.8459 21.28 13.44C21.28 14.0341 21.516 14.6038 21.936 15.0239C22.3561 15.444 22.9259 15.68 23.52 15.68Z" fill="#ED1C24"/>
</svg>
