<svg width="90" height="94" viewBox="0 0 90 94" fill="none" xmlns="http://www.w3.org/2000/svg">
<g clip-path="url(#clip0)">
<path d="M42.7903 27.9839C43.3818 27.9839 43.9215 27.7743 44.3556 27.4358L50.5548 30.8264C50.5122 31.0125 50.4839 31.2041 50.4839 31.4032C50.4839 32.817 51.6346 33.9677 53.0484 33.9677C54.4621 33.9677 55.6129 32.817 55.6129 31.4032C55.6129 31.1887 55.5787 30.9833 55.529 30.7851L60.9214 26.6102C61.3497 26.9316 61.8764 27.129 62.4516 27.129C63.8653 27.129 65.0161 25.9783 65.0161 24.5645C65.0161 23.1508 63.8653 22 62.4516 22C61.0379 22 59.8871 23.1508 59.8871 24.5645C59.8871 24.7791 59.9213 24.9836 59.971 25.1827L54.5786 29.3575C54.1503 29.0361 53.6236 28.8387 53.0484 28.8387C52.4569 28.8387 51.9172 29.0482 51.4831 29.3868L45.2839 25.9962C45.3264 25.81 45.3548 25.6185 45.3548 25.4194C45.3548 24.0056 44.2041 22.8548 42.7903 22.8548C41.3766 22.8548 40.2258 24.0056 40.2258 25.4194C40.2258 26.8331 41.3766 27.9839 42.7903 27.9839ZM62.4516 23.7097C62.9224 23.7097 63.3064 24.0929 63.3064 24.5645C63.3064 25.0362 62.9224 25.4194 62.4516 25.4194C61.9808 25.4194 61.5968 25.0362 61.5968 24.5645C61.5968 24.0929 61.9808 23.7097 62.4516 23.7097ZM53.0484 30.5484C53.5192 30.5484 53.9032 30.9316 53.9032 31.4032C53.9032 31.8749 53.5192 32.2581 53.0484 32.2581C52.5776 32.2581 52.1935 31.8749 52.1935 31.4032C52.1935 30.9316 52.5776 30.5484 53.0484 30.5484ZM42.7903 24.5645C43.2611 24.5645 43.6452 24.9477 43.6452 25.4194C43.6452 25.891 43.2611 26.2742 42.7903 26.2742C42.3195 26.2742 41.9355 25.891 41.9355 25.4194C41.9355 24.9477 42.3195 24.5645 42.7903 24.5645Z" fill="#ED1C24"/>
<path d="M28.2581 37.3871H29.9677V39.0968H28.2581V37.3871Z" fill="#ED1C24"/>
<path d="M31.6774 37.3871H33.3871V39.0968H31.6774V37.3871Z" fill="#ED1C24"/>
<path d="M35.0968 37.3871H36.8064V39.0968H35.0968V37.3871Z" fill="#ED1C24"/>
<path d="M53.9032 51.0645H48.7742V56.1935H53.9032V51.0645ZM52.1936 54.4838H50.4839V52.7741H52.1936V54.4838Z" fill="#ED1C24"/>
<path d="M47.0645 51.0645H41.9355V56.1935H47.0645V51.0645ZM45.3548 54.4838H43.6452V52.7741H45.3548V54.4838Z" fill="#ED1C24"/>
<path d="M28.2581 54.4839H40.2258V56.1936H28.2581V54.4839Z" fill="#2D9CDB"/>
<path d="M28.2581 51.0645H40.2258V52.7741H28.2581V51.0645Z" fill="#2D9CDB"/>
<path d="M28.2581 49.3549H40.2258V44.2258H28.2581V49.3549ZM33.3871 47.6452V45.9355H35.0968V47.6452H33.3871ZM38.5161 47.6452H36.8064V45.9355H38.5161V47.6452ZM29.9677 45.9355H31.6774V47.6452H29.9677V45.9355Z" fill="#ED1C24"/>
<path d="M64.2519 30.833L64.1613 30.9144V28.8387H62.4516V31.4032H58.5485L55.984 35.6774H50.1136L47.5491 31.4032H43.6452V29.6935H41.9355V33.9677H26.5484C25.6055 33.9677 24.8387 34.7345 24.8387 35.6774V57.9032C24.8387 58.8461 25.6055 59.6129 26.5484 59.6129H40.2258V61.409C38.2778 61.8063 36.8065 63.5323 36.8065 65.5967V70.7258C36.8065 71.2283 36.9091 71.7037 37.0698 72.1516C26.8877 68.9485 19.7097 59.3436 19.7097 48.5C19.7097 36.9776 27.5247 27.0631 38.7144 24.3883L38.317 22.7258C26.3543 25.5842 18 36.1833 18 48.5C18 60.9081 26.7913 71.8027 38.9026 74.4077L38.9068 74.3851C39.5463 74.7666 40.2838 75 41.0806 75C41.4079 75 41.7243 74.9557 42.0302 74.8856C42.8433 74.9607 43.6735 75 44.5 75C59.1116 75 71 63.1128 71 48.5C71 41.9689 68.6029 35.6953 64.2519 30.833ZM60.7419 33.1129H62.4516V44.2258H60.7419V33.1129ZM59.0323 33.9197V44.2258H57.3226V36.7689L59.0323 33.9197ZM50.4839 37.3871H52.1936V44.2258H50.4839V37.3871ZM53.9032 37.3871H55.6129V44.2258H53.9032V37.3871ZM48.7742 36.7689V44.2258H47.0645V33.9197L48.7742 36.7689ZM45.3548 33.1129V44.2258H43.6452V33.1129H45.3548ZM41.9355 35.6774V40.8064H26.5484V35.6774H41.9355ZM41.0806 63.0322C42.4944 63.0322 43.6452 64.183 43.6452 65.5967V67.3064H41.9355V64.7419H40.2258V67.3064H38.5161V65.5967C38.5161 64.183 39.6669 63.0322 41.0806 63.0322ZM38.5161 70.7258V69.0161H43.6452V70.7258C43.6452 72.1395 42.4944 73.2903 41.0806 73.2903C39.6669 73.2903 38.5161 72.1395 38.5161 70.7258ZM44.5 73.2903C44.4933 73.2903 44.4854 73.2895 44.4787 73.2895C45.0205 72.5732 45.3548 71.6916 45.3548 70.7258V65.5967C45.3548 63.5331 43.8835 61.8063 41.9355 61.409V59.6129C41.9355 58.67 41.1687 57.9032 40.2258 57.9032H26.5484V42.5161H41.9355V45.9355H55.6129V57.9032H43.6452V59.6129H55.6129C56.5558 59.6129 57.3226 58.8461 57.3226 57.9032V45.9355H64.1613V33.4088C67.4771 37.7247 69.2903 43.0136 69.2903 48.5C69.2903 62.169 58.1699 73.2903 44.5 73.2903Z" fill="white"/>
</g>
<circle cx="45" cy="48.8287" r="44.5" stroke="#414141"/>
<path d="M78 48.3287C78 66.8303 63.0015 81.8287 44.5 81.8287C25.9985 81.8287 11 66.8303 11 48.3287C11 29.8272 25.9985 14.8287 44.5 14.8287C63.0015 14.8287 78 29.8272 78 48.3287Z" stroke="#5F6B7A" stroke-linecap="round" stroke-linejoin="round" stroke-dasharray="1 4"/>
<path d="M1.67617 45.2472C3.55148 21.3624 24.4341 3.52024 48.3189 5.39555" stroke="#2D9CDB" stroke-width="2" stroke-linecap="round" stroke-linejoin="bevel"/>
<defs>
<clipPath id="clip0">
<rect x="18" y="22" width="53" height="53" fill="white"/>
</clipPath>
</defs>
</svg>
