<svg width="35" height="35" viewBox="0 0 35 35" fill="none" xmlns="http://www.w3.org/2000/svg">
<path d="M8.44335 21.8301C10.2973 21.8301 11.8003 20.3271 11.8003 18.4731C11.8003 16.6192 10.2973 15.1162 8.44335 15.1162C6.58937 15.1162 5.08643 16.6192 5.08643 18.4731C5.08643 20.3271 6.58937 21.8301 8.44335 21.8301Z" fill="#D3D3D3"/>
<path d="M8.4432 22.7685C6.07469 22.7685 4.14771 20.8416 4.14771 18.473C4.14771 16.1044 6.07462 14.1775 8.4432 14.1775C10.8118 14.1775 12.7387 16.1044 12.7387 18.473C12.7387 20.8416 10.8117 22.7685 8.4432 22.7685ZM8.4432 16.0548C7.10979 16.0548 6.02485 17.1397 6.02485 18.4731C6.02485 19.8066 7.10979 20.8915 8.4432 20.8915C9.77662 20.8915 10.8616 19.8066 10.8616 18.4731C10.8616 17.1397 9.77669 16.0548 8.4432 16.0548Z" fill="#414141"/>
<path d="M15.9479 18.4731C15.9479 19.4721 15.7511 20.4246 15.3967 21.2964H19.6034C19.2491 20.4246 19.0521 19.4721 19.0521 18.4731C19.0521 15.7044 20.5524 13.2878 22.7833 11.9871H12.2167C14.4476 13.2878 15.9479 15.7045 15.9479 18.4731Z" fill="#CEE8FA"/>
<path d="M26.557 21.8301C28.411 21.8301 29.9139 20.3271 29.9139 18.4731C29.9139 16.6192 28.411 15.1162 26.557 15.1162C24.703 15.1162 23.2001 16.6192 23.2001 18.4731C23.2001 20.3271 24.703 21.8301 26.557 21.8301Z" fill="#CEE8FA"/>
<path d="M26.5567 22.7685C24.1882 22.7685 22.2612 20.8416 22.2612 18.473C22.2612 16.1044 24.1881 14.1775 26.5567 14.1775C28.9253 14.1775 30.8522 16.1044 30.8522 18.473C30.8522 20.8416 28.9253 22.7685 26.5567 22.7685ZM26.5567 16.0548C25.2233 16.0548 24.1384 17.1397 24.1384 18.4731C24.1384 19.8066 25.2232 20.8915 26.5567 20.8915C27.8902 20.8915 28.9751 19.8066 28.9751 18.4731C28.975 17.1397 27.8901 16.0548 26.5567 16.0548Z" fill="#ED1C24"/>
<path d="M34.0614 17.5344C33.5431 17.5344 33.1229 17.9546 33.1229 18.473C33.1229 22.0935 30.1773 25.039 26.5568 25.039C23.7681 25.039 21.3816 23.2907 20.4314 20.8334C20.4123 20.7841 20.3931 20.7349 20.3753 20.6854C20.3577 20.6362 20.3414 20.5864 20.325 20.5368C20.3079 20.4855 20.2906 20.4342 20.2748 20.3826C20.2591 20.3307 20.2447 20.2781 20.2301 20.2256C20.2163 20.176 20.2022 20.1264 20.1896 20.0765C20.1752 20.0195 20.1627 19.9619 20.1498 19.9043C20.1395 19.8581 20.1286 19.8122 20.1192 19.7657C20.1067 19.7032 20.0961 19.6401 20.0854 19.577C20.0782 19.5345 20.0701 19.492 20.0637 19.4493C20.0536 19.3816 20.0457 19.313 20.0376 19.2446C20.0331 19.2056 20.0274 19.1668 20.0236 19.1278C20.0162 19.053 20.0113 18.9775 20.0064 18.9021C20.0042 18.8686 20.0009 18.8352 19.9991 18.8016C19.9938 18.6927 19.9908 18.5832 19.9908 18.4728C19.9908 18.3747 19.9939 18.2773 19.9982 18.1802C19.9995 18.1509 20.0009 18.1217 20.0026 18.0925C20.0072 18.012 20.0134 17.9317 20.021 17.8519C20.026 17.8001 20.032 17.7485 20.0383 17.697C20.0433 17.6551 20.0486 17.6132 20.0542 17.5717C20.2296 16.3201 20.7651 15.1484 21.5794 14.1979C21.5968 14.1777 21.6141 14.1574 21.6318 14.1375C21.6665 14.0979 21.7016 14.0585 21.7373 14.0198C21.7906 13.9621 21.8446 13.9049 21.9 13.8491C21.9192 13.8297 21.9391 13.811 21.9585 13.7918C22.01 13.7412 22.0621 13.6912 22.1152 13.6423C22.1316 13.6272 22.1479 13.6121 22.1644 13.5972C22.3109 13.4651 22.4631 13.3392 22.6211 13.2206C22.6272 13.2161 22.6332 13.2114 22.6393 13.207C22.8018 13.0857 22.9701 12.9719 23.1437 12.8658C23.1517 12.8609 23.1596 12.8562 23.1676 12.8514C24.1576 12.2523 25.3175 11.9069 26.5567 11.9069C28.3106 11.9069 29.9595 12.5899 31.1996 13.8301C31.5662 14.1967 32.1605 14.1967 32.5269 13.8301C32.8934 13.4635 32.8935 12.8693 32.5269 12.5027C30.9323 10.908 28.8119 10.0298 26.5566 10.0298C25.1032 10.0298 23.7344 10.3989 22.539 11.0484H18.4384V9.02256C18.4384 8.50419 18.0182 8.08398 17.4999 8.08398C16.9815 8.08398 16.5613 8.50419 16.5613 9.02256V11.0486H12.4607C11.2653 10.3991 9.89652 10.03 8.44313 10.03C3.78759 10.0298 0 13.8174 0 18.473C0 23.1286 3.78759 26.9162 8.4432 26.9162C11.7478 26.9162 14.6146 25.0075 16.0004 22.2349H18.9995C20.3853 25.0075 23.2521 26.9162 26.5567 26.9162C31.2123 26.9162 34.9999 23.1286 34.9999 18.473C35 17.9545 34.5798 17.5344 34.0614 17.5344ZM8.4432 25.039C4.82269 25.039 1.87715 22.0936 1.87715 18.473C1.87715 14.8525 4.82269 11.9069 8.4432 11.9069C9.68242 11.9069 10.8423 12.2522 11.8323 12.8514C11.8403 12.8562 11.8483 12.8609 11.8562 12.8658C12.0298 12.9718 12.1981 13.0857 12.3607 13.207C12.3668 13.2115 12.3728 13.2161 12.3789 13.2206C12.5368 13.3392 12.6891 13.4652 12.8356 13.5972C12.8521 13.6121 12.8684 13.6272 12.8847 13.6423C12.9378 13.6912 12.9899 13.7411 13.0415 13.7918C13.0609 13.8109 13.0808 13.8297 13.0999 13.8491C13.1553 13.9049 13.2093 13.9621 13.2627 14.0198C13.2984 14.0585 13.3334 14.0978 13.3682 14.1375C13.3858 14.1574 13.4032 14.1777 13.4205 14.1979C14.2348 15.1484 14.7703 16.3201 14.9457 17.5716C14.9514 17.6133 14.9567 17.655 14.9616 17.6969C14.9678 17.7485 14.9738 17.8 14.9789 17.8519C14.9864 17.9316 14.9926 18.0119 14.9973 18.0925C14.999 18.1217 15.0004 18.1509 15.0017 18.1801C15.006 18.2773 15.0091 18.3746 15.0091 18.4728C15.0091 18.583 15.0062 18.6926 15.0008 18.8016C14.9991 18.8352 14.9957 18.8685 14.9935 18.902C14.9887 18.9775 14.9838 19.0529 14.9764 19.1277C14.9725 19.1669 14.9669 19.2056 14.9623 19.2445C14.9542 19.313 14.9464 19.3815 14.9362 19.4493C14.9298 19.492 14.9218 19.5344 14.9145 19.5769C14.9038 19.64 14.8932 19.7032 14.8807 19.7656C14.8714 19.812 14.8604 19.8581 14.8501 19.9043C14.8373 19.9618 14.8247 20.0195 14.8103 20.0764C14.7978 20.1263 14.7836 20.1759 14.7698 20.2256C14.7552 20.2781 14.7409 20.3306 14.7251 20.3825C14.7093 20.4341 14.6921 20.4855 14.675 20.5367C14.6584 20.5864 14.6422 20.6362 14.6246 20.6853C14.6069 20.7348 14.5875 20.784 14.5685 20.8333C13.6184 23.2907 11.2319 25.039 8.4432 25.039ZM18.3256 20.3577H16.6743C16.6787 20.3383 16.6824 20.3187 16.6868 20.2993C16.6978 20.2495 16.7087 20.1997 16.7189 20.1496C16.7253 20.1182 16.731 20.0869 16.737 20.0555C16.7449 20.0139 16.7528 19.9724 16.7601 19.9307C16.7662 19.8963 16.7717 19.8619 16.7773 19.8275C16.7837 19.7883 16.7899 19.749 16.7957 19.7095C16.801 19.6739 16.8059 19.6382 16.8107 19.6027C16.816 19.5638 16.8208 19.525 16.8256 19.4859C16.8299 19.45 16.834 19.4142 16.8379 19.3783C16.8421 19.3385 16.8459 19.2988 16.8496 19.2589C16.8529 19.2239 16.8562 19.189 16.859 19.1539C16.8623 19.1114 16.8652 19.0689 16.8679 19.0263C16.8701 18.9937 16.8724 18.9611 16.8741 18.9284C16.8767 18.8797 16.8785 18.8308 16.8802 18.7818C16.8811 18.7551 16.8825 18.7283 16.8833 18.7016C16.8853 18.6256 16.8865 18.5494 16.8865 18.473C16.8865 18.3496 16.8833 18.2269 16.8779 18.1049C16.8776 18.0965 16.8774 18.088 16.877 18.0796C16.7862 16.112 16.019 14.3181 14.8028 12.9256H20.1972C18.981 14.3181 18.2138 16.112 18.123 18.0796C18.1227 18.088 18.1225 18.0964 18.1221 18.1049C18.1168 18.2271 18.1135 18.3496 18.1135 18.473C18.1135 18.5495 18.1146 18.6257 18.1167 18.7016C18.1175 18.7284 18.1188 18.7551 18.1198 18.7818C18.1216 18.8307 18.1234 18.8797 18.1259 18.9284C18.1276 18.9611 18.13 18.9936 18.1321 19.0263C18.1349 19.0689 18.1377 19.1115 18.141 19.1539C18.1438 19.1889 18.1471 19.2239 18.1504 19.2589C18.1541 19.2988 18.1579 19.3386 18.1621 19.3783C18.166 19.4142 18.1702 19.45 18.1744 19.4859C18.1792 19.5249 18.184 19.5638 18.1893 19.6027C18.1941 19.6384 18.199 19.674 18.2043 19.7095C18.2101 19.7489 18.2163 19.7882 18.2227 19.8275C18.2282 19.862 18.2338 19.8963 18.2399 19.9307C18.2472 19.9724 18.255 20.014 18.263 20.0555C18.269 20.0869 18.2747 20.1183 18.2811 20.1496C18.2912 20.1997 18.3021 20.2496 18.3132 20.2993C18.3175 20.3187 18.3213 20.3384 18.3256 20.3577Z" fill="#414141"/>
</svg>
