<svg width="143" height="22" viewBox="0 0 143 22" fill="none" xmlns="http://www.w3.org/2000/svg">
<path d="M12.8333 12.375H15.125L16.0417 8.70831H12.8333V6.87498C12.8333 5.93081 12.8333 5.04165 14.6667 5.04165H16.0417V1.96165C15.7428 1.92223 14.6144 1.83331 13.4228 1.83331C10.934 1.83331 9.16667 3.35223 9.16667 6.14165V8.70831H6.41667V12.375H9.16667V20.1666H12.8333V12.375Z" fill="#D3D3D3"/>
<path d="M46.3617 4.58333C46.3614 5.06957 46.168 5.53578 45.824 5.87943C45.4801 6.22307 45.0136 6.416 44.5274 6.41575C44.0412 6.41551 43.575 6.22212 43.2313 5.87813C42.8877 5.53414 42.6947 5.06773 42.695 4.5815C42.6952 4.09527 42.8886 3.62905 43.2326 3.28541C43.5766 2.94176 44.043 2.74884 44.5292 2.74908C45.0155 2.74933 45.4817 2.94272 45.8253 3.2867C46.169 3.63069 46.3619 4.0971 46.3617 4.58333V4.58333ZM46.4167 7.77333H42.75V19.25H46.4167V7.77333ZM52.21 7.77333H48.5617V19.25H52.1733V13.2275C52.1733 9.8725 56.5458 9.56084 56.5458 13.2275V19.25H60.1667V11.9808C60.1667 6.325 53.695 6.53584 52.1733 9.31334L52.21 7.77333V7.77333Z" fill="#D3D3D3"/>
<path d="M100.315 5.18466C99.6153 5.49421 98.8732 5.69751 98.1133 5.78783C98.9143 5.30881 99.5137 4.55492 99.8 3.66666C99.0483 4.11399 98.2243 4.42749 97.3653 4.59708C96.7884 3.97977 96.0237 3.57038 95.19 3.43253C94.3564 3.29468 93.5006 3.43611 92.7557 3.83483C92.0107 4.23354 91.4184 4.8672 91.0707 5.6373C90.723 6.4074 90.6395 7.27079 90.8332 8.09324C89.3089 8.01684 87.8176 7.62072 86.4563 6.9306C85.0951 6.24048 83.8941 5.27179 82.9315 4.08741C82.5908 4.67266 82.4117 5.33795 82.4127 6.01516C82.4127 7.34433 83.0892 8.51858 84.1177 9.20608C83.509 9.18692 82.9137 9.02254 82.3815 8.72666V8.77433C82.3817 9.65955 82.688 10.5175 83.2485 11.2026C83.8091 11.8878 84.5893 12.358 85.4569 12.5336C84.8919 12.6867 84.2995 12.7093 83.7244 12.5996C83.969 13.3615 84.4458 14.0279 85.088 14.5054C85.7302 14.9829 86.5057 15.2476 87.3058 15.2625C86.5106 15.887 85.6001 16.3487 84.6263 16.6212C83.6525 16.8936 82.6346 16.9714 81.6308 16.8502C83.3831 17.9771 85.4231 18.5754 87.5066 18.5735C94.5585 18.5735 98.4149 12.7316 98.4149 7.66516C98.4149 7.50016 98.4103 7.33333 98.403 7.17016C99.1536 6.62765 99.8015 5.95559 100.316 5.18558L100.315 5.18466Z" fill="#D3D3D3"/>
<path d="M132 1.83331C134.491 1.83331 134.801 1.84248 135.779 1.88831C136.755 1.93415 137.419 2.08723 138.004 2.31456C138.609 2.5474 139.119 2.86273 139.629 3.37148C140.095 3.82972 140.455 4.38402 140.685 4.99581C140.912 5.57973 141.066 6.24523 141.112 7.22148C141.155 8.19865 141.167 8.5094 141.167 11C141.167 13.4906 141.158 13.8013 141.112 14.7785C141.066 15.7547 140.912 16.4193 140.685 17.0041C140.456 17.6163 140.095 18.1707 139.629 18.6285C139.17 19.0944 138.616 19.4551 138.004 19.6854C137.42 19.9118 136.755 20.0658 135.779 20.1116C134.801 20.1547 134.491 20.1666 132 20.1666C129.509 20.1666 129.199 20.1575 128.222 20.1116C127.245 20.0658 126.581 19.9118 125.996 19.6854C125.384 19.4557 124.829 19.095 124.372 18.6285C123.905 18.1703 123.545 17.616 123.315 17.0041C123.087 16.4202 122.934 15.7547 122.888 14.7785C122.845 13.8013 122.833 13.4906 122.833 11C122.833 8.5094 122.843 8.19865 122.888 7.22148C122.934 6.24431 123.087 5.58065 123.315 4.99581C123.544 4.38364 123.905 3.82919 124.372 3.37148C124.83 2.90511 125.384 2.5444 125.996 2.31456C126.581 2.08723 127.244 1.93415 128.222 1.88831C129.199 1.84523 129.509 1.83331 132 1.83331ZM132 6.41665C130.784 6.41665 129.619 6.89953 128.759 7.75907C127.9 8.61862 127.417 9.7844 127.417 11C127.417 12.2156 127.9 13.3813 128.759 14.2409C129.619 15.1004 130.784 15.5833 132 15.5833C133.216 15.5833 134.381 15.1004 135.241 14.2409C136.1 13.3813 136.583 12.2156 136.583 11C136.583 9.7844 136.1 8.61862 135.241 7.75907C134.381 6.89953 133.216 6.41665 132 6.41665V6.41665ZM137.958 6.18748C137.958 5.88359 137.838 5.59214 137.623 5.37725C137.408 5.16237 137.116 5.04165 136.813 5.04165C136.509 5.04165 136.217 5.16237 136.002 5.37725C135.787 5.59214 135.667 5.88359 135.667 6.18748C135.667 6.49137 135.787 6.78282 136.002 6.99771C136.217 7.21259 136.509 7.33331 136.813 7.33331C137.116 7.33331 137.408 7.21259 137.623 6.99771C137.838 6.78282 137.958 6.49137 137.958 6.18748ZM132 8.24998C132.729 8.24998 133.429 8.53971 133.945 9.05544C134.46 9.57116 134.75 10.2706 134.75 11C134.75 11.7293 134.46 12.4288 133.945 12.9445C133.429 13.4602 132.729 13.75 132 13.75C131.271 13.75 130.571 13.4602 130.055 12.9445C129.54 12.4288 129.25 11.7293 129.25 11C129.25 10.2706 129.54 9.57116 130.055 9.05544C130.571 8.53971 131.271 8.24998 132 8.24998V8.24998Z" fill="#D3D3D3"/>
</svg>
