<svg width="90" height="93" viewBox="0 0 90 93" fill="none" xmlns="http://www.w3.org/2000/svg">
<circle cx="45" cy="48" r="44.5" stroke="#414141"/>
<path d="M78 47.5C78 66.0015 63.0015 81 44.5 81C25.9985 81 11 66.0015 11 47.5C11 28.9985 25.9985 14 44.5 14C63.0015 14 78 28.9985 78 47.5Z" stroke="#5F6B7A" stroke-linecap="round" stroke-linejoin="round" stroke-dasharray="1 4"/>
<path d="M1.67617 44.4184C3.55148 20.5337 24.4341 2.6915 48.3189 4.56681" stroke="#ED1C24" stroke-width="2" stroke-linecap="round" stroke-linejoin="bevel"/>
<path d="M59.1768 28.955H40.9682C40.4837 28.955 40.0909 29.3479 40.0909 29.8323C40.0909 30.3167 40.4838 30.7095 40.9682 30.7095H59.1768C59.6613 30.7095 60.0541 30.3166 60.0541 29.8323C60.0541 29.3479 59.6612 28.955 59.1768 28.955Z" fill="#2D9CDB"/>
<path d="M32.0733 29.2121C31.9101 29.0489 31.6839 28.9551 31.4531 28.9551C31.2223 28.9551 30.996 29.0489 30.8329 29.2121C30.6697 29.3753 30.5758 29.6007 30.5758 29.8323C30.5758 30.063 30.6697 30.2893 30.8329 30.4525C30.9959 30.6157 31.2223 30.7096 31.4531 30.7096C31.6839 30.7096 31.9101 30.6157 32.0733 30.4525C32.2365 30.2894 32.3303 30.063 32.3303 29.8323C32.3303 29.6015 32.2365 29.3752 32.0733 29.2121Z" fill="#ED1C24"/>
<path d="M28.8494 29.2121C28.6862 29.0489 28.4599 28.9551 28.2291 28.9551C27.9984 28.9551 27.7721 29.0489 27.609 29.2121C27.4458 29.3753 27.3519 29.6016 27.3519 29.8323C27.3519 30.063 27.4458 30.2893 27.609 30.4525C27.772 30.6157 27.9984 30.7096 28.2291 30.7096C28.4599 30.7096 28.6862 30.6157 28.8494 30.4525C29.0126 30.2894 29.1064 30.063 29.1064 29.8323C29.1065 29.6015 29.0127 29.3752 28.8494 29.2121Z" fill="#ED1C24"/>
<path d="M35.2972 29.2121C35.1332 29.0489 34.9078 28.9551 34.6761 28.9551C34.4454 28.9551 34.2199 29.0489 34.0559 29.2121C33.8928 29.3753 33.7989 29.6016 33.7989 29.8323C33.7989 30.063 33.8927 30.2893 34.0559 30.4525C34.2199 30.6157 34.4454 30.7096 34.6761 30.7096C34.9078 30.7096 35.1331 30.6157 35.2972 30.4525C35.4604 30.2894 35.5533 30.063 35.5533 29.8323C35.5534 29.6015 35.4604 29.3752 35.2972 29.2121Z" fill="#ED1C24"/>
<path d="M67.7431 62.3345L60.8371 55.4286L61.9205 54.3451L61.9214 54.3443L61.9222 54.3435L63.0053 53.2603L66.417 56.672C66.7597 57.0145 67.315 57.0145 67.6577 56.672C68.0003 56.3294 68.0003 55.774 67.6577 55.4314L63.6258 51.3995C63.2833 51.0571 62.728 51.0569 62.3851 51.3995L61.3011 52.4834L60.7759 51.9583C62.2843 50.17 63.1948 47.8617 63.1948 45.3445C63.1948 39.6799 58.5862 35.0713 52.9216 35.0713C50.0033 35.0713 47.3652 36.2946 45.4933 38.2552C45.4851 38.2549 45.4771 38.2539 45.4688 38.2539H28.6144C28.1299 38.2539 27.7371 38.6468 27.7371 39.1312V51.4127C27.7371 51.8971 28.13 52.2899 28.6144 52.2899H45.3588C47.2379 54.3343 49.9325 55.6178 52.9215 55.6178C55.4387 55.6178 57.7468 54.7072 59.5353 53.1989L60.0604 53.7241L58.9761 54.8084C58.8116 54.9728 58.7192 55.1961 58.7192 55.4287C58.7192 55.6614 58.8116 55.8844 58.9761 56.0491L62.6516 59.7246V63.5187C62.6516 64.5829 61.7859 65.4486 60.7217 65.4486H26.6845C25.6203 65.4486 24.7546 64.5829 24.7546 63.5187V33.8671C24.7578 33.8671 24.761 33.8677 24.7641 33.8677H62.6517V37.8217C62.6517 38.3061 63.0446 38.6989 63.5289 38.6989C64.0133 38.6989 64.4062 38.3061 64.4062 37.8217V29.4814C64.4062 27.4498 62.7534 25.7969 60.7217 25.7969H26.6845C24.6528 25.7969 23 27.4498 23 29.4814V63.5186C23 65.5502 24.6528 67.2031 26.6845 67.2031H60.7217C62.7533 67.2031 64.4062 65.5503 64.4062 63.5186V61.4789L66.5024 63.5751C66.6737 63.7464 66.8982 63.832 67.1228 63.832C67.3473 63.832 67.5717 63.7464 67.7431 63.5751C68.0856 63.2325 68.0856 62.6771 67.7431 62.3345ZM42.6516 45.6115L41.5462 43.476C41.3234 43.0457 40.7939 42.8776 40.3637 43.1003C39.9334 43.323 39.7652 43.8524 39.9879 44.2828L42.0479 48.262C42.2039 48.5634 42.5103 48.7361 42.8277 48.7361C42.9513 48.7361 43.0763 48.7085 43.195 48.6535C43.4201 49.3135 43.7111 49.9431 44.0593 50.5353H29.4916V40.0083H44.1459C43.196 41.5646 42.6482 43.3917 42.6482 45.3444C42.6482 45.4338 42.6494 45.5228 42.6516 45.6115ZM52.9215 53.8631C48.2243 53.8631 44.4028 50.0417 44.4028 45.3444C44.4028 45.2775 44.4037 45.2109 44.4053 45.1444L46.0191 48.2619C46.17 48.5534 46.4706 48.7359 46.7981 48.7359C46.8025 48.7359 46.8069 48.7359 46.8112 48.7358C47.1438 48.7308 47.4449 48.5382 47.5889 48.2384L49.5001 44.2592C49.7098 43.8223 49.5257 43.2984 49.089 43.0885C48.6526 42.8789 48.1283 43.0629 47.9184 43.4996L46.7687 45.8937L45.5172 43.4761C45.36 43.1725 45.05 43.0001 44.7301 43.0028C45.75 39.4406 49.036 36.8257 52.9215 36.8257C57.6187 36.8257 61.4402 40.6473 61.4402 45.3444C61.4402 50.0416 57.6186 53.8631 52.9215 53.8631ZM24.7545 29.4814C24.7545 28.4172 25.6202 27.5515 26.6844 27.5515H60.7216C61.7858 27.5515 62.6515 28.4172 62.6515 29.4814V32.1131H24.7641C24.7608 32.1131 24.7576 32.1135 24.7545 32.1136V29.4814Z" fill="white"/>
<path d="M39.0379 43.0886C38.6016 42.879 38.0772 43.0629 37.8673 43.4996L36.7176 45.8936L35.4662 43.4761C35.3133 43.1806 35.0078 42.9962 34.674 43.0022C34.3414 43.0072 34.0403 43.1997 33.8963 43.4995L32.7466 45.8935L31.4952 43.476C31.2724 43.0456 30.7427 42.8774 30.3128 43.1002C29.8825 43.3229 29.7142 43.8522 29.9369 44.2825L31.9968 48.2618C32.1498 48.5573 32.4576 48.7408 32.789 48.7357C33.1216 48.7307 33.4227 48.5381 33.5667 48.2383L34.7164 45.8443L35.9678 48.2618C36.1187 48.5533 36.4193 48.7358 36.7468 48.7358C36.7512 48.7358 36.7557 48.7358 36.76 48.7357C37.0926 48.7307 37.3937 48.5381 37.5376 48.2383L39.4488 44.2591C39.6587 43.8224 39.4748 43.2984 39.0379 43.0886Z" fill="white"/>
<path d="M59.1404 43.0886C58.7035 42.879 58.1796 43.0629 57.9697 43.4996L56.82 45.8936L55.5686 43.476C55.4157 43.1807 55.1064 42.9981 54.7764 43.0022C54.4438 43.0072 54.1427 43.1997 53.9988 43.4995L52.8491 45.8936L51.5976 43.476C51.3749 43.0458 50.8457 42.8775 50.4151 43.1002C49.9849 43.323 49.8167 43.8523 50.0394 44.2827L52.0994 48.262C52.2503 48.5533 52.5509 48.7359 52.8783 48.7359C52.8828 48.7359 52.8872 48.7359 52.8915 48.7358C53.2241 48.7308 53.5252 48.5382 53.6692 48.2384L54.8189 45.8445L56.0703 48.2621C56.2213 48.5534 56.5218 48.736 56.8493 48.736C56.8538 48.736 56.8582 48.736 56.8625 48.7359C57.1951 48.7309 57.4962 48.5383 57.6402 48.2385L59.5512 44.2593C59.761 43.8224 59.577 43.2984 59.1404 43.0886Z" fill="white"/>
<path d="M29.2345 59.2139C29.0715 59.0499 28.8451 58.9569 28.6144 58.9569C28.3837 58.9569 28.1573 59.0499 27.9941 59.2139C27.8309 59.3771 27.7371 59.6034 27.7371 59.8341C27.7371 60.0649 27.8309 60.2912 27.9941 60.4543C28.1573 60.6175 28.3837 60.7114 28.6144 60.7114C28.8451 60.7114 29.0714 60.6175 29.2345 60.4543C29.3977 60.2913 29.4916 60.0649 29.4916 59.8341C29.4916 59.6034 29.3977 59.3771 29.2345 59.2139Z" fill="#ED1C24"/>
<path d="M48.7093 58.9578H31.6262C31.1417 58.9578 30.749 59.3505 30.749 59.835C30.749 60.3195 31.1418 60.7122 31.6262 60.7122H48.7092C49.1937 60.7122 49.5865 60.3194 49.5865 59.835C49.5866 59.3505 49.1938 58.9578 48.7093 58.9578Z" fill="#2D9CDB"/>
<path d="M45.4576 54.7465H40.2818C39.7973 54.7465 39.4045 55.1394 39.4045 55.6238C39.4045 56.1082 39.7974 56.501 40.2818 56.501H45.4576C45.942 56.501 46.3348 56.1081 46.3348 55.6238C46.3348 55.1394 45.942 54.7465 45.4576 54.7465Z" fill="#2D9CDB"/>
<path d="M36.3422 54.7465H28.6144C28.1299 54.7465 27.7371 55.1394 27.7371 55.6238C27.7371 56.1082 28.13 56.501 28.6144 56.501H36.3422C36.8266 56.501 37.2194 56.1081 37.2194 55.6238C37.2194 55.1394 36.8266 54.7465 36.3422 54.7465Z" fill="#2D9CDB"/>
</svg>
